<?xml version="1.0" encoding="UTF-8"?>
<svg xmlns="http://www.w3.org/2000/svg" viewBox="0 0 707 787">
  <g id="Color">
    <path d="M339.44,656.19c-17.1-3.49-34.1,15.6-37.98,42.63-2.73,19.04,1.79,36.94,10.67,47.08-.28-.91-.42-1.94-.36-3.12,.05-1,1.66-1.93,1.76-3.93,6.24,1.29,2.63,11.15,7.25,13.38-4.62-2.22-1.01-12.08-7.25-13.38-.09,2-1.71,2.93-1.76,3.93-.06,1.18,.08,2.21,.36,3.12,3.73,4.26,8.22,7.15,13.27,8.19,17.1,3.49,34.1-15.6,37.98-42.63,3.88-27.03-6.84-51.78-23.94-55.26Z" fill="#00bce7"/>
    <ellipse cx="332.73" cy="702.1" rx="27.9" ry="20.48" transform="translate(-397.36 967.86) rotate(-84.65)" fill="#fff"/>
    <polygon points="327 669 326.39 686.03 332 686.83 332 674 327 669" fill="#004c9c"/>
    <g>
      <path d="M433.05,382.3l.78-.95c1.04,.72,2.99,2.24,4.24,4.23,1.76,2.83,3.95,22.61,4.89,31.05l.05,.47c.74,6.69-.78,9.84-2,12.36-.37,.76-.71,1.47-.96,2.21-.71,2.12-4.91,5.72-6.78,7.18l-20.92,.2-9.22,7.34-8.07,25.14c-8.24,7.35-23.08,13.89-27.88,15.89,.48-5.92-.77-14.8-1.2-17.6l-.98-5.85c.17-1.35-.05-2.59-.64-3.6-.09-.15-.18-.29-.29-.43,.47-1.89,.89-3.61,1.24-5.17,25.13-12.82,49.07-32.82,49.32-33.03,.58-.5,14.19-12.2,17.24-18.31,2.84-5.69,1.46-18.56,1.15-21.15Z" fill="#fafafa"/>
      <path d="M368,547c-11.03,0-20,8.97-20,20,0,2.66,.55,5.25,1.54,7.63-12.93-2.04-23.88-8.02-26.62-9.6,2.71-2.38,5.29-4.5,7.67-6.22,13.86-10.08,18.79-16.33,20.51-19.74,.12-.13,.2-.3,.23-.49,.75-1.65,.69-2.52,.65-2.75-.03-.16-.1-.3-.19-.43,.02-.11,.04-.22,.06-.32,1.42-8.31,2.38-16.13-2.88-23.42,.06-.19,.13-.38,.19-.57,1.24,.45,3.1,.67,4.95,.67,2.1,0,4.18-.29,5.33-.86,1.35-.68,3.7-3.15,5.62-5.92,2.06-.83,3.76-1.73,5.03-2.68,2.84-2.14,8.94-10.6,13.36-17.86,2.29,.33,4.66,.75,7.06,1.27l-19.75,61.51c-.91-.13-1.84-.21-2.77-.21Z" fill="#00bce7"/>
      <path d="M370.15,549.15l-10.8,33.63c-5.71-3.13-9.35-9.2-9.35-15.77,0-9.92,8.08-18,18-18,.72,0,1.43,.06,2.15,.15Z" fill="#191c2f"/>
      <path d="M254.99,538.41c-1.47-8.07-.92-14.28-.54-16.92,10.73-18,23.27-37.01,27.87-38.54,7.62-2.54,18.82-1.88,21.55-1.67-1.94,1.9-4,3.66-6.28,5.18l-.9,.59c-.51,.27-.6,.66-1.2,.1l1.04,1.71c-.15-.6,.02-.68,.18-.76l.47-.29s.93-.59,.93-.59c1.79-1.17,3.7-2.48,5.4-3.78,4.02-3.03,7.35-6.76,10.7-10.46,.01,0,.02,0,.03,0v-.02c.55-.61,1.11-1.23,1.67-1.84,0,0,5.1-5.6,5.78-6.35,3.01-2.22,6.98-2.77,9.55,.35,1.3,1.45,2.43,3.31,3.79,4.76,3.35,3.73,7.11,7.03,10.98,10.19-.73,1.28-4.35,7.25-9.4,10.27-1.52-3.48-3.01-6.94-4.26-9.84-1.1-2.82-3.19-5.77-6.38-6.55-3.3-.44-5.89,1.99-8.35,3.61-1.55,1.16-3.02,2.45-4.37,3.79-4.11,4.11-8.57,6.64-13.26,9.57,0,0,.07,.17,.07,.17,1.83-.3,3.61-.74,5.39-1.17,3.29-2.05,6.41-4.41,9.21-7.12,1.33-1.31,2.71-2.51,4.19-3.61,2.06-1.34,4.29-3.43,6.75-3.23,2.39,.68,3.98,3.05,4.86,5.34,2.08,4.83,4.82,11.26,7.26,16.68-1.34,1.91-5.98,6.84-17.86,7.01-.67-4.58-.07-9.27,1.13-13.73,0,0-1.92-.56-1.92-.56,0,.01,0,.02,0,.03h0c-.19,.64-.35,1.28-.5,1.93-1.18,4.18-2.93,8.31-4.71,12.23,0,0,.36,.2,.36,.2,1.19-2.03,2.36-4.11,3.46-6.23-.27,4.76,.44,9.55,2.28,13.94,.2,.49,.39,1,.58,1.51-2.37-.61-5-.54-7.16,.67-.92,.49-1.65,1.01-2.43,1.31-4.83,1.75-11.19-1.84-13.11-6.61-1.67-4.43-.68-9.25,.21-13.77,.16-.61,.31-1.33,.66-1.82,.02,.02,.04,.04,.05,.07,0,0,.56-.35,.56-.35-.56-.92-1.31-.14-1.53,.52-1.5,5.03-2.74,10.62-1.04,15.77,2.11,5.52,8.94,9.64,14.79,7.75,1.01-.36,1.86-.93,2.64-1.31,2.31-1.17,4.97-.87,7.3,.2,.43,.99,.95,1.93,1.66,2.75-2.03,5.14-2.98,7.03-2.99,7.05h.01c-.09,.19-.15,.4-.11,.62,.53,3.04,2.37,13.11,3.83,14.83l.23,.27c.87,1.04,1.56,1.76,2.64,1.76,.64,0,1.42-.25,2.45-.84,.29-.17,.68-.38,1.12-.62,4.65-2.53,9.67-5.46,10.64-8.2,0,0,0-.01,.01-.02,.04-.11,3.4-9.09,7.24-20.34,.83,1.33,1.52,2.82,2.01,4.33,1.5,4.27,.97,8.66,.37,13.1-.27,2.19-.58,4.23-1.11,6.45-1.3,2.74-5.62,8.82-20.04,19.3-5.58,4.06-12.27,10.18-19.2,17.11-4.27,.78-15.28,.54-22.59-1.29-6.76-1.69-11.39-4.85-16.29-8.2-.84-.57-1.68-1.15-2.55-1.73-3.04-2.03-6.11-5.66-8.63-10.23-2.46-4.44-4.24-9.44-5.15-14.45Z" fill="#fafafa"/>
      <path d="M259.05,552.94c-3.86,2.59-7.04,7.5-8.82,10.69-.73-.02-2.44,.14-6.73,.78,1.43-3.4,3.23-6.63,5.39-9.61,2.14-2.94,4.62-5.63,7.37-8.02,.79,2.13,1.72,4.19,2.78,6.16Z" fill="#00bce7"/>
      <path d="M355.32,459.95c3.09-1.04,6.24-.41,7.33,1.45,.26,.45,.54,1.25,.36,2.46l-.02,.15,1.02,6.14c.47,3.03,.89,6.53,1.11,9.83-1.18,1.15-4.18,3.01-11.44,3.47-1.19-.92-2.38-1.85-3.57-2.79,3.55-1.71,6.56-5.87,6.71-6.08l-1.63-1.16c-1,1.4-4.09,5-6.88,5.81-2.63-2.1-5.19-4.24-7.52-6.45-2.76-2.41-4.96-5.14-7.19-7.98,3.56-.45,7.13-1.06,10.62-1.83,3.73-.82,7.46-1.84,11.1-3.03Z" fill="#fafafa"/>
      <path d="M351.83,458.94c4.84-9.04,8.8-14.8,11.78-17.15,.95-.74,1.31-.73,1.31-.74,.67,.58,.75,4.12-2.53,17.43-2-1.16-4.86-1.37-7.71-.42-.95,.31-1.9,.6-2.86,.89Z" fill="#171c14"/>
      <path d="M324.44,518.08c-2.09-3.67-3.55-7.97-4.42-12.09,11.43-.2,16.36-4.62,18.15-6.95,.48,1.06,.95,2.08,1.4,3.02,.69,1.43,1.33,2.87,2.2,4.23,.05,.07,.11,.16,.21,.27,.06,.91,.04,1.8-.11,2.66-.29,2.16-1.59,3.66-3.21,5.07-1.57,1.39-3.41,2.91-5.22,3.86-1.87,.83-4.17,.83-6.27,.84-.89,.02-1.81-.18-2.47-.71l-.7-.29c.08,0,.23,.03,.26,.04,.08,.03,.22,.08,.24,.12,0,0-.07-.08-.07-.08Z" fill="#00bce7"/>
      <path d="M324.81,520.6c1.81,.68,3.91,.35,5.87,.26,2.37-.09,4.85-1.37,6.64-2.86,3.92-2.92,6.7-5.7,6.72-10.4,.16,.07,.33,.13,.51,.17,1.21,.38,2.57,.05,3.74-.36-3.15,9.52-6.31,18.3-7.99,22.89-.11,.11-.2,.23-.25,.38l-1,3c-.75,2.25-7.04,5.67-9.72,7.13-.46,.25-.85,.46-1.15,.63q-1.48,.84-2.58-.47l-.23-.27c-.75-.88-2.26-7.53-3.33-13.56,.33-.7,1.22-2.65,2.77-6.55Z" fill="#171c14"/>
      <path d="M343.06,504.95s.03,0,.04,0c-.05,0-.09-.01-.14-.01-.05,0,0,0,.1,0Z" fill="#fff"/>
      <path d="M344,505.24c-.14-.08-.33-.15-.53-.21-.75-1.22-1.36-2.56-2-3.86-1.36-2.86-2.93-6.37-4.48-9.91,5.19-3.04,8.84-8.9,9.79-10.54,.65,.53,1.3,1.05,1.95,1.57,2.4,1.82,7.12,5.53,9.51,7.47,.02,.02,.05,.06,.06,.09,.71,1.35,.69,2.99,.55,4.5-.42,5.77-5.22,8.99-10.32,10.69-1.67,.66-2.96,1.23-4.54,.2Z" fill="#00bce7"/>
      <path d="M350.7,506.49c2.24-.9,4.55-2.06,6.33-3.75,1.8-1.52,3.2-4.14,3.78-6.89,1.56-.39,3.29-1.18,4.57-2.77,.02-.02,.03-.04,.05-.06,.45,.91,1.28,3.09,.61,5.75-.94,3.76-5.72,9.47-7.48,10.35-1.67,.84-6.71,.86-8.75,.08,.3-.89,.6-1.79,.89-2.7Z" fill="#00bce7"/>
      <path d="M365.01,488.84c-.15,.92-.41,2-1.2,2.99-.75,.93-1.74,1.49-2.72,1.84,.1-2.01-.29-3.95-1.34-5.42-1.58-1.29-3.23-2.59-4.9-3.89,5.78-.5,8.79-1.92,10.34-3.12,.16,2.95,.13,5.66-.19,7.6Z" fill="#00bce7"/>
      <path d="M366.83,491.45c-.09-.14-.22-.24-.36-.31,.19-.49,.32-.97,.41-1.41,1.87-.75,8.43-3.47,15.43-7.27-4.51,7.56-10.92,16.37-13.41,18.24-.56,.42-1.24,.84-2,1.24,.48-.94,.86-1.86,1.07-2.7,1.09-4.38-1.05-7.66-1.14-7.8Z" fill="#1a1a1a"/>
      <path d="M370.21,259.45l1.96-1.31,6.06,1.73,19.19,53.12,4.96,.05,5.92,11.84,9.94,2.98c1.34,3.53,9.96,26.45,11.77,37.35,.03,.18,.1,.65,.18,1.21l-.29-.16c-.13-.43-.26-.88-.4-1.33-3.37-10.84-8.31-21.09-14.68-30.45-7.57-11.12-16.97-20.75-27.94-28.62l-16.68-46.42Z" fill="#fafafa"/>
      <path d="M144.26,339.51c-9.09-12.14-8.92-30.15,.48-50.7,9.49-20.75,27.23-41.54,49.94-58.55,46.71-34.98,100.11-42.9,119.03-17.64,15.37,20.53,3.42,57.8-29.07,90.68-1.1,.33-2.21,.67-3.31,1.02,14.2-14.06,24.89-29.65,30.29-44.27,5.94-16.08,5.2-30.29-2.1-40.02-8.44-11.27-24.54-15.67-45.35-12.4-20.58,3.23-43.38,13.6-64.19,29.18-43.13,32.31-64.18,77.35-46.92,100.4,6.64,8.87,18.17,13.44,32.72,13.44,7.43,0,15.65-1.19,24.4-3.61-1.14,1.12-2.26,2.24-3.35,3.36-28.29,7.73-51.67,3.67-62.58-10.89Z" fill="#00bce7"/>
      <path d="M431.01,382.13l-.06-.43,.39-.47-.34-2.46c-.66-3.56-1.59-7.3-2.77-11.14h0s-.11-.39-.11-.39c-.18-.57-.34-1.12-.52-1.69h.01s0-.01,0-.02c-3.31-10.66-8.16-20.72-14.42-29.92-7.5-11.01-16.82-20.53-27.7-28.3l-.25-.18-.11-.29-.16-.45-.23,.33c-.42-.3-.85-.6-1.28-.9-.72-.5-2-.84-3.48-1.23-.71-.19-1.47-.39-2.25-.63-32.58-10.04-69.19-8.04-105.85,5.77-51.75,19.49-80.16,58.9-92.49,80.66h0c-1.19,2.42-1.34,5.71-1.36,6.46l4.39,13.08c7.59-2.61,26.03-6.92,29.6-6.92,4.45,0,13.42,7.83,16.7,12.75,3.17,4.76,5.28,11.28,5.37,11.56l-.07,.02c1.39,2.94,2.69,5.69,3.9,8.24,10.07,21.19,11.83,24.3,15.75,27.67,5.9,5.08,12.27,7.62,21.98,8.76,15.64,1.84,28.22,.87,33.19,0,1.44-.25,2.89-.54,4.32-.86,3.27-3.61,7.1-7.84,7.1-7.84,3.48-2.79,8.4-3.5,11.79-.33,3.93-.45,7.88-1.11,11.75-1.96,1.8-.4,3.6-.84,5.39-1.33,5.38-10.26,9.82-16.82,13.21-19.48,.55-.43,2.24-1.76,3.64-.85,1.45,.94,1.87,3.52-.13,12.88,24.38-12.73,47.23-31.82,47.46-32.01,.13-.11,13.87-11.93,16.75-17.68,2.83-5.66,.92-20.27,.9-20.42Zm-182.14-6.65c-1.47,1.49-2.77,3.12-4.16,4.68,.29,.76,.06,1.69-.96,1.9-.38,.08-.76,.18-1.14,.27-2.29,2.12-4.92,3.53-7.88,4.52-3.38,1.13-6.88,1.79-10.36,2.55-3.58,.78-7.14,1.79-10.62,2.93-1.84,.6-2.62-2.3-.8-2.89,2.34-.76,4.72-1.47,7.11-2.09-1.78,.13-3.57,.25-5.36,.39-1.93,.16-1.91-2.85,0-3,4.97-.4,9.93-.5,14.83-1.5,3.98-.81,7.68-2.56,11.59-3.62,1.98-1.98,3.65-4.25,5.62-6.25,1.36-1.38,3.48,.75,2.12,2.12Z" fill="#191c2f"/>
      <path d="M175.02,422.59c.32-1.25,3.02-8.08,5.54-9.76,2.81-1.87,27.72-7.83,31.45-7.83,3.38,0,11.84,7.07,15.04,11.86,.46,.68,.89,1.42,1.3,2.16l-.37,.17c3.02,6.44,5.75,12.22,8.13,17.23,9.78,20.59,11.87,24.55,16.25,28.33,6.23,5.37,12.91,8.05,23.06,9.24,6.61,.78,12.69,1.06,17.9,1.06,7.3,0,12.9-.55,15.86-1.06,.57-.1,1.14-.21,1.71-.32-1.36,1.5-2.3,2.54-2.3,2.54-1.04,1.21-2.1,2.39-3.2,3.53-.16-.22-.41-.38-.7-.41-.56-.05-13.9-1.32-22.99,1.71-4.01,1.34-12.53,13.03-21.2,26.69l-8.6-1.28c.92-.57,1.82-1.12,2.67-1.63,1.22-.74,2.74-1.65,3.39-3.5,.39-1.11,.4-2.32,.02-3.61l-.06-.22-.16-.17c-1.45-1.59-3.64-4.02-6.28-6.99-.42-.48-.83-.94-1.24-1.4,.16-2.76-2.08-8.6-2.59-9.89l-.08-.14c-.17-.2-16.69-19.77-19.64-23.71-2.91-3.88-7.87-20.67-7.92-20.84l-.04-.12-4.61-4.61-.98-1.01v-3.98l-.24-.28c-1.04-1.22-2.24-2.29-3.55-3.18-.08-.05-1.93-1.3-4.23-2.11-3.35-1.19-14.84,1.61-29.04,8.25-1.04-1.99-2.07-4.09-2.28-4.71Z" fill="#fafafa"/>
      <path d="M249.17,487.76c-9.09-10.24-14.89-16.88-20.36-24.35-5.33-7.29-10.2-15.23-14.45-23.59v-9.76l4.7,4.7c.49,1.66,5.12,17.15,8.04,21.04,2.89,3.85,18.59,22.46,19.63,23.69,1.01,2.56,2.15,6.12,2.45,8.27Z" fill="#fafafa"/>
      <polygon points="113 383.64 113 379.77 117.87 375.46 163 433.34 163 436.43 159.22 438.7 157.65 436.84 157.72 436.51 157.3 436.42 113 383.64" fill="#fafafa"/>
      <polygon points="162.02 453.1 161.99 452.9 161.88 452.91 156.07 444.77 157.15 439.35 158.78 441.3 165 437.57 165 432.66 164.26 431.71 169.72 428.35 177.97 440.27 177.05 451.38 165.3 457.7 162.02 453.1" fill="#fafafa"/>
      <path d="M221.26,510.03c-13.95-3.72-53.34-35.35-57.31-38.55l-1.51-14.35,2.26,3.16,14.25-7.67,1.07-12.9-5.98-8.63,.97-.48c15.78-7.8,27.91-10.64,30.65-9.67,2.05,.73,3.76,1.87,3.77,1.89,1.07,.72,2.05,1.58,2.92,2.55v14.92l.11,.21c4.33,8.54,9.29,16.64,14.73,24.08,5.97,8.16,12.29,15.28,22.77,27.07,2.55,2.87,4.69,5.24,6.14,6.83,.2,.8,.19,1.53-.04,2.17-.41,1.17-1.44,1.79-2.57,2.48-2.06,1.24-4.34,2.66-6.98,4.34-2.5,.92-4.46,1.73-6.08,2.4-6.57,2.71-7.75,3.2-19.17,.16Z" fill="#fafafa"/>
      <path d="M222.65,549.49c-.18,.73-.36,1.48-.6,2.19-.1,.31-.18,.89-.23,1.72l-1.11-1.11c-1.64-1.64-1.7-3.21-1.71-3.22l.98-12.73,15.75-22.63c1.61-.4,3.26-1.08,5.47-1.99,1.84-.76,4.13-1.71,7.15-2.78l-.07-.21c.34-.21,.68-.43,1.01-.64l10.05,1.49c-9.17,14.61-18.31,31-22.27,39.25-3.05-2.46-8.08-4.83-10.68-4.51-2.55,.33-3.15,2.79-3.72,5.16Z" fill="#fafafa"/>
      <path d="M236.18,550.72c-.76,1.69-1.18,2.84-1.18,3.28,0,1.16-1.31,6.32-2.82,12.3-2.27,8.98-5.07,20.05-6.49,28.77-.37-.23-.7-.57-.7-1.08,0-.46-.1-2.56-.24-5.73-.42-9.24-1.53-33.79-.81-35.96,.26-.79,.46-1.59,.64-2.36,.59-2.43,.96-3.51,2.04-3.65,1.92-.26,6.85,2.06,9.55,4.4Z" fill="#fafafa"/>
      <path d="M226.76,618.1c-2.34-.63-4.26-7.13-5.18-10.26-.25-.83-.46-1.55-.64-2.07-.76-2.2-.17-3.13-.18-3.13,0,0,0,0,0,0l3.22-6.39c.42,.41,.92,.71,1.39,.9-.6,4.25-.81,7.79-.36,10.04,.98,4.89,1.73,8.45,2.77,11.2-.32-.1-.66-.2-1.03-.3Z" fill="#bebebe" stroke="#bebebe" stroke-miterlimit="10" stroke-width="2"/>
      <path d="M241.07,629.01c-.46-.11-1.99-1.38-3.34-2.51-1.21-1-2.58-2.14-4.13-3.3-1.09-.82-1.94-1.71-2.65-2.83-.05-.13-.13-.26-.23-.39-1.5-2.6-2.39-6.41-3.74-13.17-1.31-6.57,3.77-26.69,7.14-40.01,1.89-7.48,2.88-11.45,2.88-12.78,.15-1.87,7.41-15.55,16.2-30.42-.28,3.27-.37,8.5,.81,14.99,.44,2.41,1.08,4.82,1.9,7.17-2.92,2.5-5.55,5.33-7.81,8.44-2.49,3.42-4.53,7.16-6.06,11.11l.54,.21v.03s.04,0,.06,0l.34,.13c.03-.07,.06-.13,.08-.19,3.22-.49,6.63-.92,7.24-.88l.42,.23c1.3-2.43,4.71-8.22,8.83-11.02,2.55,4.48,5.62,8.06,8.68,10.1,.86,.58,1.71,1.15,2.54,1.72,4.98,3.4,9.68,6.61,16.61,8.35,4.72,1.18,11.22,1.75,16.44,1.75,1.98,0,3.77-.09,5.21-.25-14.16,14.28-29.17,31.66-37.94,41.83-3.48,4.03-6,6.95-6.57,7.46-2.41,2.15-22.13,4.22-23.44,4.24Z" fill="#fafafa"/>
      <path d="M379.02,689.8c-1.8,9.02-6.74,9.46-6.95,9.48v.05c-8.02,1.44-16.12,2.35-24.11,2.67-39.99,1.6-57.14-11.49-57.99-13.25,0-.01-.05-.18-.58-2.26v-3.91s.04,0,.05,0c1.1,0,2.13-.22,3.03-.71,.2-.11,3.42-2.26,6.08-4.05,2.95-1.96,36.43-30.26,48.08-41.2l.07,.07c.85-.85,1.95-1.66,2.29-1.71h26.54l.62,.58c.66,1.58,5.08,12.2,6.91,16.79,1.6,4.01,1.74,7.46,1.75,8.45l-5.8,28.99Z" fill="#999"/>
      <path d="M383,680.08l.12-.6,.34,.22c-.13,.19-.29,.31-.45,.37Z" fill="#fff"/>
      <path d="M383.26,678.8l.07-.35c.06,.06,.12,.12,.17,.21l-.24,.13Z" fill="#fff"/>
      <path d="M384.56,676.89c-.44,.5-.82,.8-1.12,.98l3.34-16.68h.03s0-.08,0-.18l.16-.82-.18-.04c-.06-1.58-.39-4.82-1.87-8.53-1.78-4.45-5.98-14.54-6.85-16.63h4.83c1.31,2.83,7.08,15.98,7.08,29,0,4.78-4.18,11.09-5.44,12.89Z" fill="#666"/>
      <path d="M379.06,602v13.03h-19.06v-13.59l-5.15-4.68,.2-.61,3.68-11.45c-3.85-2.02-6.88-5.22-8.73-9.03v.05c-13.86-2.04-25.6-8.66-27.87-9.99-16.71,14.87-38.28,39.85-49.54,52.89-4.11,4.76-6.11,7.07-6.75,7.64-1.95,1.74-10.09,3.07-16.53,3.87,2.74,11.14,7.23,21.15,13.19,29.53,.79,.88,1.52,1.81,2.14,2.81,0,.02,.02,.03,.03,.05,.24,.3,.46,.62,.7,.91,.81,.7,1.55,1.48,2.23,2.32,.45,.56,.9,1.13,1.33,1.71,.26,.27,.52,.56,.79,.83,4.67,4.72,10.24,9.01,14.84,11.05,.8,.1,1.48,.37,2.04,.76,1.98,.61,3.69,.68,4.93,.01,0,0,.57-.36,5.92-3.95,3.13-2.08,40.9-34.05,49.85-42.94l.26,.26c.5-.28,1-.49,1.45-.49h35.17l.28,.55c.31,.62,7.56,15.35,7.56,30.45,0,.89-.12,1.81-.33,2.74,4.45-7.02,8.27-14.42,11.4-22.12,5.53-13.59,8.87-27.93,9.92-42.62h-33.93Z" fill="#fafafa"/>
      <rect x="362" y="602" width="15.06" height="11.03" fill="#191c2f"/>
      <path d="M487.57,574.27c-.16,.17-.32,.34-.49,.51l-.05-.05-.17,.17-.05,.17c-1.68,1.72-3.46,3.28-5.63,3.93-4.13,.98-7.63-.95-8.78-4.86h0s-.11-.37-.11-.37c-.02-.08-.04-.16-.05-.24,3.69,1.34,8.14,.89,11.28-1.45,1.26-.98,2.56-1.89,3.87-2.78,.39,1.49,.72,3.68,0,4.85l.19,.12Z" fill="#00bce7"/>
      <path d="M476.18,560.45c1.43,.37,3,.6,4.44,.18,1.64-.43,3.46-.83,4.88-1.96,.26-.23,.57-.42,.91-.63,.83-.49,1.67-.96,2.52-1.43,2.25,2.89,2.6,5.79,1.03,8.63-1.31,.8-2.61,1.62-3.9,2.48-2.57,1.81-4.75,3.94-7.45,4.38-2.58,.37-5.81,.11-7.93-1.59-2.95-2.39-4.72-7.55-3.02-11.17,.54-1.07,1.42-2.09,2.36-2.84,1.14,1.8,3.12,3.23,6.15,3.95Z" fill="#00bce7"/>
      <path d="M480.24,539.97c1.79,.23,5.04,.42,8.21,.61,1.24,.77,3.16,2.3,3.97,4.75,.82,2.47,.31,5.32-1.47,8.47-1.82,.89-3.62,1.81-5.39,2.82-.55,.26-1.15,.84-1.66,1.12-1.57,.7-3.59,1.43-5.4,1.34-2.94-.38-6.34-1.69-7.45-4.63-1.62-6.13,3.37-12.79,9.18-14.48Z" fill="#00bce7"/>
      <path d="M517.03,538.52c.92,3.94-.95,9.09-.95,9.09l-3.06,7.13c-.95,2.22-1.6,4.12-2.13,5.65-1.3,3.79-1.63,4.28-2.71,4.09-1.61-.29-4.5,.19-7.08,.76,.83-.47,1.69-.9,2.59-1.28,2.96-1.12,6.29-1.98,6.66-5.73,.41-1.7,.99-3.39,.82-5.22,0,0-.32,0-.32,0-.75,2.09-1.69,4.33-2.25,6.47-.93,1.86-3.55,2.26-5.45,3.03-2.53,.98-4.81,2.39-6.95,3.99-.06,.02-.13,.04-.17,.05l.02,.06c-1.61,1.21-3.14,2.53-4.64,3.87-.91,.74-1.78,1.62-2.64,2.53,.18-1.52-.2-3.26-.5-4.3,4.71-3.11,9.69-5.77,14.68-8.49,0,0,2.01-1.07,2.01-1.07,2.41-.85,3.49-3.44,4.77-5.42,1.79-2.74,3.08-5.63,4.3-8.58-.35-2.93-1.37-5.73-2.91-8.2l-.21,.1c.47,1.3,.8,2.63,.98,3.98,.17,1.21,.23,2.53,.14,3.73-1.14,2.72-2.38,5.46-3.97,7.87-1.14,1.53-1.71,3.66-3.49,4.47l-.52,.27s-2.03,1.08-2.03,1.08c-3.55,1.94-7.08,3.86-10.54,5.91,1.17-3.27-.04-6.14-1.63-8.24,1.83-.98,3.69-1.93,5.55-2.84,1.14-.52,2.75-1.39,3.9-1.65,.71-.29,1.12-.84,1.63-1.34,2.33-2.53,4.42-5.25,6.52-7.96,1.25-2.87,2.07-9.99-1.45-11.31,2.03,2.13,1.59,5.39,1.27,8.07-.16,.9-.39,1.85-.73,2.62-2.44,2.93-4.73,6.08-7.59,8.59-.92,.18-2.99,1.15-4.17,1.67-.77,.36-1.54,.72-2.3,1.09,1.39-2.93,1.71-5.64,.91-8.05-.64-1.95-1.89-3.36-3.05-4.32,1.12,.07,2.19,.13,3.13,.2,.67,.05,1.96,.09,2.64,.11,1.93-.36,2.72-2.22,3.63-3.47,.59-.97,1.13-1.94,1.64-2.93l.3,.09,.6-1.89c.22-.46,.44-.93,.65-1.39,0,0-.08-.04-.19-.08l3.96-12.53c3.09,3.13,9.39,15.64,10.34,19.72Z" fill="#fafafa"/>
      <path d="M500.43,531.96c-1.17,2.45-2.44,5.08-4.26,6.9-.09,.08-.19,.13-.21,.14-.05,0-.73-.02-.73-.02-5.05-.25-10.11-.63-15.16-.97-7.2,1.57-12.81,10.4-10.89,16.64,0,0,0-.01,0-.01-1.41,1.05-2.48,2.28-3.29,3.81-1.56,3.05-.84,6.72,.49,9.72,.73,1.74,1.93,3.1,3.39,4.1l.61,2.08c1.66,6.68,9.2,9.06,14.74,4.89,.18-.15,.35-.31,.52-.47l-5.39,17.08-5.91,4.16h-112.95l-4.24-3.85,47.71-148.56,8.2-6.54,109.49-1.05,.58,.66,4.09,6.48-26.8,84.82Z" fill="#fafafa"/>
      <polygon points="325.94 686.06 326.94 686.07 327 669.63 331.5 673.72 331.5 686.07 332.5 686.07 332.5 673.28 326 667.37 325.94 686.06" fill="#fff"/>
      <path d="M336.44,531.88s-.02-.24-.02-.24c-4.16,.07-8.24-1.47-11.6-3.83,0,0-.25,.26-.25,.26,3.02,3.2,7.57,4.57,11.88,3.81Z" fill="#fff"/>
      <path d="M221.29,385.39c-2.66-.28-5.31-.02-7.87,.75l.8,2.89c4.53-1.45,9.06-2.91,13.59-4.36,1.83-.59,1.05-3.47-.8-2.89-3.71,1.16-7.51,2.02-11.37,2.49l.76,2.8c1.18-.67,2.36-1.35,3.53-2.02,1.46-.83,.49-3.25-1.16-2.74-2.76,.86-5.36,2.11-7.73,3.77l1.82,2.36c2.41-1.93,5.45-2.72,8.5-2.46l-1.06-2.56c-1.67,1.57-4.21,2.3-6.21,3.38-2.23,1.2-4.38,2.55-6.45,4.02-.94,.67-1.03,2.48,.36,2.74,1.47,.27,2.6-.17,3.91-.78s2.74-1.23,4.14-1.75c2.77-1.03,5.61-1.82,8.5-2.4l-.8-2.89c-4.15,1.49-8.3,2.98-12.46,4.47-1.8,.65-1.1,3.36,.8,2.89,4.99-1.22,10.05-2.11,15.16-2.65l-.4-2.95c-4.16,1.42-8.64,3.29-13.07,3.49l1.3,2.26c.4-.6,1.73-.95,2.35-1.21,.85-.36,1.7-.7,2.57-1.02,1.94-.73,3.9-1.39,5.89-1.98,3.9-1.15,7.89-1.99,11.92-2.55l-.8-2.89c-4.87,1.88-9.93,3.18-15.1,3.88l1.85,1.85s1.11-.56,1.25-.64c.53-.29,1.07-.58,1.6-.86,1.08-.56,2.17-1.09,3.27-1.59,2.23-1.01,4.52-1.88,6.84-2.65l-.8-2.89c-2.42,.93-4.92,1.65-7.47,2.11-1.22,.22-2.45,.38-3.68,.47-.68,.05-1.37,.09-2.06,.1-.3,0-.61,.01-.92,.01-.15,0-.31,0-.46,0-.37-.03-.31,.02,.17,.13l.44,1.06,.03-.27-.44,1.06c.58-.62,2.02-.88,2.82-1.15,1.02-.34,2.06-.63,3.1-.88,2.19-.53,4.43-.91,6.67-1.18s4.56-.47,6.85-.58c1.15-.06,2.29-.09,3.44-.1,.57,0,2.37-.31,2.76,.12l.3-2.36c-5.99,2.57-12.1,4.88-18.28,6.96l1.16,2.74,11.42-6.4c3.64-2.04,7.3-4.04,10.68-6.49,1.54-1.12,.22-3.51-1.51-2.59-5.02,2.67-10.04,5.33-15.06,8l1.51,2.59c2.68-1.47,5.37-2.95,7.93-4.63,1.99-1.31,5.18-2.98,5.66-5.55,.22-1.18-.67-2.05-1.85-1.85-3.46,.6-6.58,2.11-9.3,4.31-1.15,.93,.09,3.03,1.46,2.51,3.65-1.4,6.98-3.33,10.01-5.81,.89-.73,.35-2.24-.66-2.51-1.93-.5-3.41,1.01-4.8,2.14-1.58,1.28-3.09,2.64-4.55,4.07s.74,3.48,2.12,2.12c1.02-1,2.07-1.98,3.16-2.91,.51-.44,1.04-.88,1.56-1.3,.32-.25,1.31-1.33,1.7-1.22l-.66-2.51c-2.6,2.13-5.55,3.83-8.68,5.04l1.46,2.51c2.32-1.88,5.05-3.03,7.98-3.54l-1.85-1.85c-.2,1.07-1.38,1.73-2.21,2.33-1.05,.77-2.13,1.49-3.23,2.18-2.21,1.38-4.49,2.64-6.77,3.89-1.7,.93-.19,3.5,1.51,2.59,5.02-2.67,10.04-5.33,15.06-8l-1.51-2.59c-3.38,2.45-7.04,4.46-10.68,6.49s-7.61,4.27-11.42,6.4c-1.46,.82-.48,3.29,1.16,2.74,6.43-2.16,12.76-4.59,18.99-7.27,.94-.4,.88-1.72,.3-2.36-1.32-1.45-3.87-1.02-5.62-.99-2.29,.04-4.58,.17-6.87,.39-4.54,.42-9.14,1.07-13.47,2.54-1.45,.49-4.51,1.12-4.4,3.17,.12,2.28,3.16,1.83,4.67,1.76,4.48-.21,8.91-1.15,13.1-2.76,1.77-.68,1.07-3.51-.8-2.89-2.86,.94-5.66,2.05-8.38,3.33-1.3,.61-2.59,1.26-3.85,1.95-1.15,.63-2.45,1.18-2.83,2.54-.33,1.22,.76,1.99,1.85,1.85,5.17-.7,10.23-2,15.1-3.88,1.83-.71,1.1-3.16-.8-2.89-4.49,.62-8.91,1.6-13.24,2.95-2.12,.66-4.22,1.41-6.28,2.25-1.75,.71-3.89,1.29-4.99,2.93-.62,.93,.19,2.31,1.3,2.26,4.73-.22,9.43-2.09,13.87-3.6,1.5-.51,1.38-3.14-.4-2.95-5.38,.57-10.7,1.48-15.95,2.76l.8,2.89c4.15-1.49,8.3-2.98,12.46-4.47,1.81-.65,1.11-3.28-.8-2.89-2.59,.52-5.14,1.21-7.63,2.09-1.15,.4-2.28,.85-3.4,1.32-.64,.27-1.28,.55-1.92,.85-.58,.27-1.35,.8-2.02,.68l.36,2.74c2.19-1.56,4.47-2.98,6.85-4.23,2.16-1.14,4.6-1.93,6.41-3.63,1.02-.96,.16-2.46-1.06-2.56-3.89-.33-7.6,.93-10.62,3.34-1.32,1.05,.42,3.33,1.82,2.36,2.17-1.51,4.49-2.68,7.01-3.46l-1.16-2.74c-1.18,.67-2.36,1.35-3.53,2.02s-.78,2.99,.76,2.8c4.13-.51,8.19-1.36,12.17-2.6l-.8-2.89c-4.53,1.45-9.06,2.91-13.59,4.36-1.83,.59-1.06,3.45,.8,2.89,2.33-.69,4.66-.9,7.07-.64,1.92,.2,1.9-2.8,0-3h0Z" fill="#191c2f"/>
    </g>
    <path d="M349.36,677.64c1.51-10.03,2.91-19.89,2.74-30.06-.06-3.22,2.42-4.83,4.92-4.83,0-.03,0-.05,0-.07h23.17l-3.12-8.68-21.65-.06-7.42,.06s-58,47-58.61,48.58,.58,6.17,.58,6.17l4.18,3.27s13.85,7.98,32.73,9.41c5.89,.45,11.28,.75,16.12,.74,3.21-7.95,5.06-15.87,6.37-24.53Z" fill="#666"/>
    <path d="M525.88,445.25c-.49-.45-.83-.99-1.03-1.61-.31-.6-.46-1.24-.43-1.93,0-.07,0-.14,0-.2-.53-.41-.96-.92-1.26-1.51h-110.47l-8.7,7h122v-1.67s-.08-.06-.12-.09Z" fill="#bebebe" stroke="#bebebe" stroke-miterlimit="10" stroke-width="2"/>
    <polyline points="411.43 447.93 363.71 600.16 357.03 598.07 404.26 447.4" fill="#bebebe" stroke="#bebebe" stroke-miterlimit="10" stroke-width="2"/>
    <path d="M417.61,447l-9.03,7.11-1.58-1.11,1.54-1.03,10.46-6.97-3.84-1.5s-5.68,5.11-5.42,5.31" fill="#bebebe" stroke="#bebebe" stroke-miterlimit="10" stroke-width="2"/>
    <path d="M226.08,454.11l20.65,25.38s2.27,8.51,2.21,9.51,7.57,8.45,7.57,8.45l.71,2.55s-4.21,1-9.21,1.38-5-1.38-14.88-8.12c-9.88-6.75-35.12-35.25-34.6-42.95s5.04-29.52,5.04-29.52" fill="#bebebe" stroke="#bebebe" stroke-miterlimit="10" stroke-width="2"/>
    <path d="M203.56,419.77l4.86,1.01,3.77,2.99,1.16,2.03v2.49l5.7,6.47,5.91,18.24,.81,3.97-4.97,.73s-10.81-6.7-11.81-6.7-7-12-7-12" fill="#bebebe"/>
    <polyline points="156.07 446.41 169.31 438.7 177.05 451.38 165 459" fill="#bebebe" stroke="#bebebe" stroke-miterlimit="10" stroke-width="2"/>
    <polyline points="162.44 437.94 117 381 113 385.19 159 440" fill="#bebebe" stroke="#bebebe" stroke-miterlimit="10" stroke-width="2"/>
    <path d="M349,540.64s-8.32,1.64-16.16,0" fill="#bebebe" stroke="#bebebe" stroke-miterlimit="10" stroke-width="2"/>
    <path d="M241.07,629.01c2.07-15.99,19.93-49.01,28.93-61.01s34.71-37.25,34.71-37.25c4.71,3.75,18.09,7.54,18.09,7.54l1.26,3.98,2.64,1.76,1.48,1.89s-4.35,7.67-5.27,8.38-67.93,69.55-67.93,69.55l-12.49,6.05" fill="#bebebe" stroke="#bebebe" stroke-miterlimit="10" stroke-width="2"/>
    <path d="M241.61,630l22.39-3.82,49.22-53.45s16.1-15.52,21.94-18.63,11.51-12.07,11.51-12.07l-13.84-.67s4.71-2.3-1.57,.67-1.67,5.42-8.47,2.19" fill="#bebebe" stroke="#bebebe" stroke-miterlimit="10" stroke-width="2"/>
    <path d="M301,648.03c-3-8.03-6.71-32.03-6.85-46.03s0-18.34,0-18.34l-40.62,33.73-4.77,14.66s4.41,12.67,9.6,23.12c.13,.1,.26,.19,.38,.29,.14,.11,.28,.21,.41,.33-.12-.1-.2-.17-.28-.23-.27-.2-.72-.6,0,0,.01,0,.03,.02,.04,.03,.97,.68,1.66,1.56,2.06,2.53,1.4,1.28,2.68,2.75,3.67,4.36,.13,.21,.23,.42,.32,.63,.96,.78,1.84,1.67,2.63,2.65,1.03,1.28,2.05,2.6,2.92,4,.45,.73,1.28,1.63,2.04,2.56,.26,.2,.51,.4,.79,.58,3.12,2.14,6.16,4.41,9.29,6.53,.37-.08,.76-.14,1.18-.14,1.84,0,3.15,.83,3.94,1.99,.06,.06,.13,.13,.19,.19,5.29-1.2,11.75-6.54,11.75-6.54l11.82-11.14s-7.5-7.74-10.5-15.77Z" fill="#bebebe" stroke="#bebebe" stroke-miterlimit="10" stroke-width="2"/>
    <path d="M391.1,484.39c-.93-.01-1.86-.14-2.79-.24-.92-.11-1.85-.16-2.78-.18-.82-.01-1.43-.65-1.49-1.45l-.56-.06-7.54,11.47s-8.8,12.02-10.87,11.04-4.07,4.77-4.07,4.77l-6.88,2-4.32-2.57-1.84,1.57,4.93,16.25c6.53,.09,11.72-1.02,15.11-2,4.87-1.41,9.79-2.9,13.34-7.43,.8-1.02,1.33-1.94,1.66-2.57,3.04-10.35,6.09-20.69,9.13-31.04-.28,.26-.65,.43-1.03,.42Z" fill="#004c9c"/>
    <path d="M327.45,504.73s1.23,10.27,5.39,14.27-10.04-.62-10.04-.62l-3.58-10.28-.32-2.44,3.13-.24" fill="#006ad3"/>
    <path d="M335.87,491.3l5.13,11.31,2.73,3.68,3.56,.6,5.37-2.72s8.34-3.16,4.06-2.78-16.72-12.98-16.72-12.98" fill="#006ad3"/>
    <path d="M360.74,482.93s-1.74,4.43-.74,6.75-4-2.62-4-2.62l-3.34-2.63" fill="#006ad3"/>
    <path d="M355.52,501.94s-1.37,.94,4.56,0,6.74-2.3,6.74-2.3l-2.72,5.02-5.16,5.7-7.1,.4-2.03-.51-1.24-.49,.44-3.73" fill="#006ad3"/>
    <path d="M482,553c-3.54-2.93-2.8-7.77-2.65-8.61,.37-2.06,1.2-3.9,2.42-5.26,.16-.17,.29-.32,.43-.48-.13,0-.26,0-.39-.02-.54-.05-1.17-.12-1.71-.34-.86,.69-1.5,1.22-1.5,1.22l-5.86,4.53s-2.75,2.97-2.75,5.97c0,1.05-.33,4.58,2.24,7.59,2.95,3.45,7.18,3.42,7.76,3.41l11-7c-3.08,1.37-6.58,1-9-1Z" fill="#004c9c"/>
    <path d="M483.55,558.57s-5.27,12.25,.59,11.84-6.01,2.78-6.01,2.78l-4.14-.18-5.01-2.7-1.98-2.34-1.01-3.58v-3.26l1.01-2.64,1.52-1.97,1.47-.77" fill="#004c9c"/>
    <path d="M483.06,571.18s-2.53,5.99,2.71,4.9-.82,2.02-.82,2.02l-4.23,2.14-3.71-.25-2.71-1.23-1.44-1.49-.45-3.15-1.31-2.14" fill="#004c9c"/>
    <path d="M322.39,484.92c-1.98,2.71-4.21,5.2-6.48,7.66-4.34,6.52-9.88,12.45-9.78,16.45,.13,5.02,6.48,6.38,6.48,6.38l9.88-29.93c-.03-.19-.06-.37-.1-.56Z" fill="#bebebe" stroke="#bebebe" stroke-miterlimit="10" stroke-width="2"/>
    <polyline points="312.79 516.3 316.91 514.89 322.04 515.59 318.58 502.55 319.08 495.13 310.86 499.64" fill="#bebebe"/>
    <path d="M325.04,494.54c-.61-.06-1.24-.46-1.32-1.08-.31-2.29-.68-4.57-1.04-6.85-.09-.56-.19-1.13-.29-1.7-1.08,1.47-2.22,2.89-3.42,4.26-.32,.68-.52,1.12-.52,1.12l-1.45,10.7,10.16,3.16s-1.14-4.58-2.12-9.62Z" fill="#bebebe"/>
    <polyline points="316.45 501.94 317.84 504.96 320.88 505.5 327.16 504.73 325 501" fill="#bebebe"/>
    <path d="M322.8,484.38s1.57,8.85,1.88,12.23-2.61,3.02-2.61,3.02l-.66-9.95" fill="#bebebe"/>
    <path d="M325.53,496.98s-2.4-12.12-2.47-14.05-1.26,3.69-1.26,3.69l1.26,9.29" fill="#bebebe"/>
    <path d="M316,479.23s3.84-4.13,5.42-6.18,1-3.05,3.29-2.05,3.29,1,5.29,3,3.99,6.31,6.99,10.16l3.01,3.84-3.01,2.3-1.41,.33-4.57-9.64s-1.66-4.42-1.33-4.21-3.68-1.79-3.68-1.79l-2.33-.26-6.34,4.31" fill="#bebebe" stroke="#bebebe" stroke-miterlimit="10" stroke-width="2"/>
    <path d="M343.01,475.32s4.09-.43,8.54-3.87,6.67-5.09,6.67-5.09c0,0-1.21,7.65-2.21,8.65s-6.39,4.8-6.39,4.8h-1.64" fill="#bebebe"/>
    <path d="M357.51,470.17s-.06,1.83,1.72,3.83,1.52,8.29,1.52,8.29l-6.61,1.16h-1.47l-1.92-.92-1.59-1.25" fill="#bebebe"/>
    <path d="M265,472l-2.1-1.39-8.87-4.96-3.11-3.29c-.38-.06-.75-.26-1.02-.66-.67-1.01-1.22-2.09-1.73-3.19-.25-.07-.48-.21-.65-.38-.28-.28-.38-.6-.43-.97,0,.06,.02,.13,.03,.19-.04-.27-.12-.53-.21-.78-.06-.12-.12-.24-.18-.36-.32-.41-.54-.92-.71-1.39-.01-.04-.02-.07-.03-.11,0,0,0-.02-.01-.03-.09-.09-.17-.18-.23-.29-.86-1.49-1.75-2.95-2.6-4.44-.51-.21-.85-.73-.92-1.29,0,0,0,0,0,0-.01-.06-.02-.11-.04-.17-.03-.12-.07-.24-.11-.35-.02-.06-.04-.12-.07-.18,0,0,0,0,0-.01-.03-.06-.04-.1-.04-.09-.03-.08-.07-.15-.1-.23-.22-.46-.45-.91-.67-1.37-.53-1.15-1.29-2.17-1.79-3.34-.17-.39-.25-.74-.15-1.16,.01-.05,.04-.1,.06-.15-.27-.75-.58-1.48-.86-2.23-.06-.07-.12-.15-.16-.24-.7-1.63-1.47-3.24-2.16-4.88-1.11-1.85-2.8-3.97-2.9-6.24l-.49-1.02-4.87-10.7-7.32-7.68-4.93-2.85-2.26-.77s-1.35,0-2.84,2c-.11,.15-.19,.28-.25,.4,.58,.05,1.16,.15,1.72,.28,.94,.23,1.86,.58,2.71,1.06,.21,.12,.37,.29,.49,.48,.63,.35,1.37,.83,2.15,1.38,.46,.26,.88,.57,1.26,.93,1.84,1.42,3.77,3.14,5.08,4.77,2.68,3.3,8.09,15.79,8.09,15.79,0,0,9.24,18.9,12.69,25.6s9.55,10.3,12.79,12.91c3.24,2.61,16.5,3.44,16.5,3.44l-8.74-2.05Z" fill="#bebebe" stroke="#bebebe" stroke-miterlimit="10" stroke-width="2"/>
    <path d="M267,473.35s13.64,2.08,25.32,2.37,19.55-1.67,19.55-1.67l.91-.99" fill="#bebebe"/>
    <path d="M269.1,474.4s6.87,1.03,12.39,1.32,12.52,.77,20.52,.03,9.87-1.7,9.87-1.7" fill="#bebebe"/>
    <polyline points="378.23 259.87 374 262 391.77 309.58 397.42 312.99" fill="#bebebe"/>
    <g>
      <path d="M367.77,435.29c-.04-.29-.3-.42-.57-.29l-3.73,1.82c-.3,.15-.51,.52-.47,.83l.46,3.55c.14-.11,.3-.19,.46-.23,.57-.16,1.07,.04,1.43,.4l2.57-1.41c.28-.15,.46-.52,.42-.82l-.57-3.85Z" fill="#00bce7"/>
      <path d="M368.69,441.5c-.05-.3-.31-.43-.58-.27l-2.2,1.24c.58,1.85,.39,4.08-.21,5.92l3.17-1.98c.28-.18,.47-.57,.42-.89l-.6-4.03Z" fill="#00bce7"/>
      <path d="M374.35,442.98l-3.35,2.1c-.27,.17-.53,.05-.57-.26l-.6-3.96c-.05-.3,.13-.67,.4-.82l3.32-1.87c.25-.14,.48-.02,.53,.26l.63,3.74c.05,.29-.11,.65-.36,.81Z" fill="#00bce7"/>
    </g>
    <path d="M338.86,420.17l3.26-1.57c.25-.12,.39-.52,.32-.89l-.94-4.82c-.07-.37-.33-.58-.58-.46l-3.26,1.52c-.25,.12-.4,.52-.33,.89l.94,4.87c.07,.38,.34,.58,.59,.46Z" fill="#00bce7"/>
    <path d="M332.03,414.86l3.34-1.55c.25-.12,.4-.52,.33-.89l-.94-4.86c-.07-.37-.34-.58-.59-.47l-3.35,1.5c-.26,.12-.41,.52-.34,.89l.94,4.91c.07,.38,.34,.59,.6,.47Z" fill="#00bce7"/>
    <path d="M333.54,422.73l3.34-1.61c.25-.12,.4-.53,.33-.9l-.94-4.88c-.07-.37-.34-.58-.59-.46l-3.34,1.56c-.26,.12-.41,.53-.34,.9l.94,4.93c.07,.38,.34,.59,.6,.46Z" fill="#00bce7"/>
    <path d="M326.58,417.38l3.43-1.58c.26-.12,.41-.53,.34-.9l-.94-4.92c-.07-.38-.34-.59-.6-.47l-3.43,1.53c-.27,.12-.42,.52-.35,.91l.94,4.97c.07,.38,.35,.59,.61,.47Z" fill="#00bce7"/>
    <path d="M328.1,425.35l3.42-1.65c.26-.13,.41-.54,.34-.92l-.95-4.95c-.07-.38-.34-.59-.6-.47l-3.42,1.6c-.27,.12-.42,.53-.35,.92l.95,5c.07,.38,.35,.59,.61,.47Z" fill="#00bce7"/>
    <path d="M321,419.96l3.51-1.62c.27-.12,.43-.54,.35-.92l-.94-4.99c-.07-.38-.35-.6-.62-.48l-3.51,1.57c-.27,.12-.43,.53-.36,.92l.94,5.04c.07,.39,.35,.6,.62,.47Z" fill="#00bce7"/>
    <path d="M322.52,428.04l3.51-1.69c.27-.13,.42-.55,.35-.93l-.95-5.01c-.07-.38-.35-.6-.62-.47l-3.51,1.64c-.27,.13-.43,.54-.36,.93l.95,5.06c.07,.39,.35,.6,.62,.47Z" fill="#00bce7"/>
    <path d="M315.28,422.6l3.6-1.66c.27-.13,.44-.54,.36-.93l-.95-5.05c-.07-.39-.35-.6-.63-.48l-3.6,1.61c-.28,.12-.45,.54-.37,.94l.95,5.11c.07,.39,.36,.61,.64,.48Z" fill="#00bce7"/>
    <path d="M316.8,430.79l3.59-1.73c.27-.13,.44-.56,.36-.95l-.95-5.08c-.07-.39-.35-.6-.63-.47l-3.6,1.68c-.28,.13-.45,.55-.37,.95l.95,5.13c.07,.4,.36,.61,.64,.47Z" fill="#00bce7"/>
    <path d="M309.41,425.32l3.69-1.7c.28-.13,.45-.55,.38-.95l-.95-5.12c-.07-.39-.36-.61-.64-.48l-3.69,1.65c-.29,.13-.46,.55-.39,.95l.95,5.17c.07,.4,.36,.61,.65,.48Z" fill="#00bce7"/>
    <path d="M310.94,433.61l3.69-1.77c.28-.14,.45-.57,.38-.96l-.95-5.15c-.07-.39-.36-.61-.64-.48l-3.69,1.72c-.29,.13-.46,.56-.39,.96l.95,5.2c.07,.4,.36,.61,.65,.48Z" fill="#00bce7"/>
    <path d="M303.4,428.1l3.78-1.75c.29-.13,.46-.57,.39-.96l-.95-5.19c-.07-.4-.37-.62-.65-.49l-3.78,1.69c-.29,.13-.47,.56-.4,.97l.95,5.24c.07,.4,.37,.62,.66,.49Z" fill="#00bce7"/>
    <path d="M304.93,436.51l3.78-1.82c.29-.14,.46-.58,.39-.98l-.95-5.22c-.07-.4-.37-.62-.65-.48l-3.78,1.76c-.29,.14-.47,.58-.4,.98l.96,5.27c.07,.41,.37,.62,.66,.48Z" fill="#00bce7"/>
    <path d="M297.23,430.95l3.88-1.79c.3-.14,.48-.58,.4-.98l-.95-5.26c-.07-.4-.37-.62-.67-.49l-3.88,1.74c-.3,.13-.49,.57-.41,.98l.95,5.32c.07,.41,.38,.63,.68,.49Z" fill="#00bce7"/>
    <path d="M298.76,439.48l3.88-1.87c.3-.14,.48-.59,.4-.99l-.96-5.29c-.07-.41-.37-.62-.67-.49l-3.88,1.81c-.3,.14-.49,.59-.41,1l.96,5.35c.07,.41,.38,.63,.68,.48Z" fill="#00bce7"/>
    <path d="M290.25,434.17l3.99-1.85c.3-.14,.49-.59,.42-1l-.95-5.34c-.07-.41-.38-.63-.68-.5l-3.99,1.79c-.31,.14-.5,.59-.43,1l.95,5.4c.07,.42,.38,.64,.69,.49Z" fill="#00bce7"/>
    <path d="M291.79,442.83l3.99-1.92c.3-.15,.49-.6,.42-1.01l-.96-5.37c-.07-.41-.38-.63-.68-.49l-3.99,1.86c-.31,.14-.5,.6-.43,1.02l.96,5.43c.07,.42,.38,.64,.69,.49Z" fill="#00bce7"/>
    <path d="M283.74,437.19l4.1-1.89c.31-.14,.51-.6,.43-1.02l-.95-5.41c-.07-.42-.39-.64-.7-.5l-4.1,1.83c-.32,.14-.52,.6-.44,1.02l.96,5.48c.07,.42,.39,.64,.71,.5Z" fill="#00bce7"/>
    <path d="M285.27,445.97l4.1-1.97c.31-.15,.5-.61,.43-1.03l-.96-5.45c-.07-.42-.39-.64-.7-.49l-4.1,1.91c-.32,.15-.52,.61-.44,1.03l.96,5.51c.07,.42,.39,.64,.71,.49Z" fill="#00bce7"/>
    <path d="M277.04,440.28l4.21-1.95c.32-.15,.52-.61,.45-1.03l-.96-5.49c-.07-.42-.39-.65-.71-.5l-4.21,1.88c-.33,.15-.53,.61-.46,1.04l.96,5.56c.07,.43,.4,.65,.72,.5Z" fill="#00bce7"/>
    <path d="M278.58,449.19l4.21-2.03c.32-.15,.52-.62,.45-1.05l-.96-5.52c-.07-.42-.39-.65-.71-.5l-4.21,1.96c-.33,.15-.53,.62-.46,1.05l.96,5.59c.07,.43,.4,.65,.73,.49Z" fill="#00bce7"/>
    <path d="M270.17,443.46l4.32-2c.33-.15,.54-.62,.46-1.05l-.96-5.57c-.07-.43-.4-.65-.73-.51l-4.32,1.93c-.34,.15-.55,.62-.47,1.05l.96,5.64c.07,.43,.41,.66,.74,.51Z" fill="#00bce7"/>
    <path d="M341.89,438.26l.95,4.93c.07,.38,.34,.58,.59,.44l3.24-1.75c.25-.13,.39-.55,.31-.92l-.95-4.88c-.07-.37-.33-.57-.58-.44l-3.24,1.7c-.25,.13-.4,.54-.32,.92Z" fill="#00bce7"/>
    <path d="M336.59,441.05l.95,4.99c.07,.38,.34,.58,.6,.44l3.32-1.79c.25-.14,.4-.56,.33-.94l-.95-4.94c-.07-.38-.34-.58-.59-.45l-3.32,1.74c-.26,.13-.41,.55-.33,.94Z" fill="#00bce7"/>
    <path d="M340.37,430.42l.95,4.9c.07,.38,.34,.58,.59,.45l3.24-1.69c.25-.13,.39-.54,.32-.91l-.94-4.85c-.07-.37-.33-.57-.58-.45l-3.24,1.64c-.25,.13-.4,.53-.32,.91Z" fill="#00bce7"/>
    <path d="M335.08,433.11l.95,4.96c.07,.38,.34,.58,.6,.45l3.32-1.73c.25-.13,.4-.55,.33-.92l-.95-4.91c-.07-.38-.34-.58-.59-.45l-3.32,1.68c-.26,.13-.41,.54-.33,.93Z" fill="#00bce7"/>
    <path d="M338.87,422.62l.94,4.88c.07,.38,.34,.58,.59,.45l3.25-1.63c.25-.12,.39-.53,.32-.9l-.94-4.83c-.07-.37-.33-.57-.58-.45l-3.25,1.58c-.25,.12-.4,.52-.32,.9Z" fill="#00bce7"/>
    <path d="M333.56,425.21l.95,4.94c.07,.38,.34,.58,.6,.45l3.32-1.66c.25-.13,.4-.53,.33-.91l-.94-4.89c-.07-.38-.34-.58-.59-.46l-3.33,1.61c-.26,.13-.41,.53-.34,.91Z" fill="#00bce7"/>
    <path d="M295.41,462.78l.98,5.51c.08,.42,.39,.63,.69,.47l3.98-2.15c.3-.16,.49-.64,.41-1.06l-.97-5.45c-.07-.42-.38-.63-.68-.47l-3.98,2.09c-.31,.16-.5,.64-.42,1.06Z" fill="#00bce7"/>
    <path d="M288.9,466.2l.98,5.59c.08,.43,.39,.64,.71,.47l4.08-2.21c.31-.17,.5-.65,.43-1.08l-.98-5.53c-.07-.42-.39-.64-.7-.47l-4.08,2.14c-.32,.17-.51,.65-.44,1.08Z" fill="#00bce7"/>
    <path d="M293.85,454.01l.97,5.48c.07,.42,.39,.63,.69,.47l3.98-2.07c.3-.16,.49-.62,.41-1.04l-.97-5.42c-.07-.42-.38-.63-.68-.48l-3.98,2.01c-.31,.16-.5,.62-.42,1.04Z" fill="#00bce7"/>
    <path d="M287.34,457.31l.97,5.56c.07,.43,.39,.64,.71,.48l4.08-2.13c.31-.16,.5-.64,.43-1.06l-.97-5.5c-.07-.42-.39-.64-.7-.48l-4.08,2.06c-.32,.16-.51,.64-.44,1.06Z" fill="#00bce7"/>
    <path d="M292.31,445.29l.96,5.45c.07,.42,.38,.63,.69,.48l3.98-1.99c.3-.15,.49-.61,.41-1.03l-.96-5.39c-.07-.41-.38-.63-.68-.48l-3.98,1.93c-.31,.15-.5,.61-.43,1.03Z" fill="#00bce7"/>
    <path d="M285.8,448.46l.97,5.53c.07,.43,.39,.64,.71,.48l4.09-2.05c.31-.16,.5-.62,.43-1.04l-.97-5.47c-.07-.42-.39-.64-.7-.49l-4.09,1.98c-.32,.15-.51,.62-.44,1.05Z" fill="#00bce7"/>
    <path d="M330.58,464.51l-.49-2.6c-.07-.39-.35-.59-.62-.44l-2.64,1.49c.47,.14,.91,.37,1.27,.63,.74,.53,1.32,1.2,1.94,1.85,.03-.39,.24-.71,.54-.92Z" fill="#00bce7"/>
    <path d="M297.11,472.39c.88-.04,1.76,.06,2.64,.08,.86,.02,1.69-.14,2.54-.22,.12-.01,.25-.02,.37-.03l-.61-3.4c-.08-.42-.38-.63-.68-.46l-3.97,2.16c-.31,.17-.5,.65-.42,1.07l.14,.79Z" fill="#00bce7"/>
    <path d="M309.23,470.84l-.98-5.4c-.07-.41-.37-.62-.67-.46l-3.87,2.11c-.3,.16-.48,.64-.41,1.06l.72,4c1.08-.05,2.16-.07,3.22-.01,.28,.02,.52,.12,.72,.25l.87-.49c.29-.17,.47-.64,.4-1.05Z" fill="#00bce7"/>
    <path d="M334.79,463c1.39-.1,2.6-.24,3.97-.74,.22-.08,.44-.16,.66-.23l-.84-4.38c-.07-.39-.34-.58-.6-.44l-3.4,1.92c-.26,.15-.42,.59-.34,.98l.55,2.89Z" fill="#00bce7"/>
    <path d="M336.45,449.17l-3.4,1.85c-.26,.14-.42,.58-.34,.97l.96,5.08c.07,.39,.35,.59,.61,.44l3.4-1.9c.26-.15,.41-.58,.33-.96l-.96-5.03c-.07-.39-.34-.58-.6-.44Z" fill="#00bce7"/>
    <path d="M340.55,461.69c.86-.22,1.73-.35,2.62-.3l1.37-.8c.25-.15,.4-.58,.32-.96l-.96-4.99c-.07-.38-.34-.58-.59-.43l-3.31,1.87c-.26,.14-.41,.58-.33,.96l.89,4.65Z" fill="#00bce7"/>
    <path d="M341.77,446.27l-3.32,1.81c-.26,.14-.41,.57-.33,.95l.96,5.02c.07,.39,.34,.58,.6,.44l3.31-1.86c.25-.14,.4-.57,.32-.95l-.96-4.96c-.07-.38-.34-.58-.59-.44Z" fill="#00bce7"/>
    <g>
      <path d="M386.34,373.8l-3.47,1.5c-.27,.12-.55-.08-.63-.45l-.99-4.76c-.08-.37,.08-.76,.35-.87l3.5-1.44c.27-.11,.54,.1,.61,.46l.96,4.7c.07,.36-.08,.74-.34,.86Z" fill="#00bce7"/>
      <path d="M387.87,381.27l-3.44,1.57c-.27,.12-.55-.07-.62-.43l-.98-4.72c-.08-.36,.08-.75,.35-.87l3.46-1.51c.26-.11,.54,.08,.61,.44l.95,4.67c.07,.36-.08,.74-.34,.86Z" fill="#00bce7"/>
      <path d="M391.74,371.47l-3.35,1.45c-.26,.11-.53-.09-.6-.45l-.95-4.69c-.07-.36,.08-.74,.34-.85l3.38-1.39c.26-.11,.52,.1,.59,.46l.93,4.63c.07,.35-.08,.73-.33,.84Z" fill="#00bce7"/>
      <path d="M393.22,378.83l-3.33,1.52c-.26,.12-.53-.07-.6-.43l-.95-4.65c-.07-.36,.08-.74,.34-.86l3.35-1.46c.25-.11,.52,.09,.59,.44l.92,4.59c.07,.35-.08,.73-.33,.85Z" fill="#00bce7"/>
      <path d="M396.95,369.22l-3.24,1.4c-.25,.11-.51-.09-.59-.44l-.92-4.62c-.07-.36,.08-.73,.33-.83l3.27-1.34c.25-.1,.51,.1,.58,.45l.9,4.56c.07,.35-.07,.72-.32,.83Z" fill="#00bce7"/>
      <path d="M398.39,376.46l-3.22,1.47c-.25,.11-.51-.08-.58-.43l-.92-4.58c-.07-.35,.08-.73,.33-.84l3.24-1.41c.25-.11,.5,.09,.57,.44l.9,4.52c.07,.35-.07,.72-.32,.83Z" fill="#00bce7"/>
      <path d="M402,367.04l-3.14,1.36c-.24,.11-.5-.09-.57-.44l-.9-4.55c-.07-.35,.07-.72,.32-.82l3.16-1.3c.24-.1,.49,.1,.56,.45l.88,4.49c.07,.34-.07,.71-.31,.81Z" fill="#00bce7"/>
      <path d="M403.4,374.18l-3.11,1.42c-.24,.11-.49-.08-.56-.43l-.89-4.51c-.07-.35,.07-.72,.32-.82l3.13-1.37c.24-.1,.49,.09,.55,.43l.87,4.46c.07,.34-.07,.71-.31,.81Z" fill="#00bce7"/>
      <path d="M376.61,386.42l-3.69,1.69c-.29,.13-.58-.07-.66-.44l-1.04-4.88c-.08-.38,.09-.78,.38-.91l3.71-1.62c.28-.12,.57,.08,.65,.45l1.02,4.82c.08,.37-.09,.77-.37,.9Z" fill="#00bce7"/>
      <path d="M378.23,394.07l-3.65,1.76c-.28,.14-.58-.05-.66-.42l-1.03-4.84c-.08-.37,.09-.78,.37-.91l3.68-1.7c.28-.13,.57,.06,.65,.43l1.01,4.77c.08,.37-.08,.77-.36,.9Z" fill="#00bce7"/>
      <path d="M382.34,383.8l-3.56,1.63c-.28,.13-.56-.07-.64-.44l-1.01-4.8c-.08-.37,.09-.77,.36-.89l3.59-1.57c.27-.12,.55,.08,.63,.45l.98,4.74c.08,.36-.08,.76-.35,.88Z" fill="#00bce7"/>
      <path d="M383.9,391.33l-3.53,1.7c-.27,.13-.56-.06-.64-.42l-1-4.76c-.08-.37,.08-.77,.36-.9l3.55-1.64c.27-.12,.55,.07,.62,.43l.98,4.7c.07,.36-.08,.76-.35,.89Z" fill="#00bce7"/>
      <path d="M408.24,371.96l-3.01,1.38c-.23,.11-.48-.08-.54-.42l-.86-4.44c-.07-.34,.07-.7,.31-.81l3.03-1.33c.23-.1,.47,.09,.54,.43l.84,4.39c.06,.34-.07,.69-.3,.8Z" fill="#00bce7"/>
      <path d="M409.58,378.94l-2.99,1.44c-.23,.11-.47-.07-.54-.41l-.86-4.41c-.07-.34,.07-.7,.3-.81l3.01-1.39c.23-.11,.47,.08,.53,.42l.84,4.36c.06,.33-.07,.69-.3,.8Z" fill="#00bce7"/>
      <path d="M412.94,369.81l-2.92,1.34c-.23,.1-.46-.08-.53-.42l-.84-4.38c-.06-.34,.07-.69,.3-.79l2.94-1.28c.22-.1,.46,.09,.52,.43l.82,4.33c.06,.33-.07,.68-.29,.78Z" fill="#00bce7"/>
      <path d="M414.24,376.69l-2.9,1.4c-.22,.11-.46-.07-.52-.41l-.83-4.34c-.06-.33,.07-.69,.29-.8l2.92-1.35c.22-.1,.45,.08,.51,.41l.81,4.29c.06,.33-.07,.68-.29,.79Z" fill="#00bce7"/>
      <path d="M378.25,421.69l1.01,4.69c.08,.36-.08,.78-.36,.94l-3.65,2.13c-.28,.17-.58,0-.66-.36l-1.03-4.75c-.08-.37,.09-.79,.37-.95l3.67-2.07c.28-.16,.57,0,.65,.37Z" fill="#00bce7"/>
      <path d="M383.93,418.47l.97,4.62c.07,.35-.08,.77-.35,.92l-3.52,2.06c-.27,.16-.56,0-.64-.36l-1-4.67c-.08-.36,.08-.78,.36-.93l3.55-2c.27-.15,.55,.01,.62,.37Z" fill="#00bce7"/>
      <path d="M376.63,414.15l1.01,4.73c.08,.36-.09,.78-.37,.94l-3.68,2.06c-.29,.16-.58,0-.66-.37l-1.04-4.79c-.08-.37,.09-.79,.38-.95l3.71-2c.28-.15,.57,.02,.65,.39Z" fill="#00bce7"/>
      <path d="M382.37,411.04l.98,4.65c.08,.36-.08,.77-.35,.92l-3.55,1.99c-.28,.15-.56-.01-.64-.37l-1.01-4.71c-.08-.36,.09-.78,.36-.93l3.58-1.93c.27-.15,.55,.03,.63,.38Z" fill="#00bce7"/>
      <path d="M375,406.54l1.02,4.77c.08,.37-.09,.78-.37,.93l-3.72,1.98c-.29,.15-.59-.02-.67-.39l-1.05-4.83c-.08-.37,.09-.8,.38-.94l3.74-1.92c.28-.15,.58,.03,.66,.4Z" fill="#00bce7"/>
      <path d="M380.79,403.56l.99,4.69c.08,.36-.08,.77-.36,.91l-3.59,1.91c-.28,.15-.57-.03-.65-.39l-1.02-4.75c-.08-.37,.09-.78,.37-.92l3.61-1.85c.27-.14,.56,.04,.63,.4Z" fill="#00bce7"/>
      <path d="M373.35,398.87l1.03,4.81c.08,.37-.09,.78-.37,.93l-3.75,1.9c-.29,.15-.59-.03-.68-.41l-1.06-4.87c-.08-.38,.09-.8,.38-.94l3.78-1.84c.29-.14,.58,.05,.66,.42Z" fill="#00bce7"/>
      <path d="M379.19,396l1,4.73c.08,.36-.08,.77-.36,.91l-3.62,1.84c-.28,.14-.57-.04-.65-.41l-1.03-4.79c-.08-.37,.09-.78,.37-.92l3.65-1.78c.28-.14,.56,.05,.64,.42Z" fill="#00bce7"/>
      <path d="M418.84,398.71l.79,4.17c.06,.32-.06,.68-.28,.8l-2.8,1.64c-.22,.13-.44-.03-.51-.35l-.81-4.21c-.06-.32,.07-.69,.28-.81l2.82-1.59c.21-.12,.44,.04,.5,.36Z" fill="#00bce7"/>
      <path d="M423.22,396.23l.77,4.11c.06,.32-.06,.67-.27,.79l-2.72,1.59c-.21,.12-.43-.03-.49-.35l-.78-4.15c-.06-.32,.06-.68,.28-.8l2.74-1.54c.21-.12,.42,.04,.48,.36Z" fill="#00bce7"/>
      <path d="M417.57,392.01l.79,4.2c.06,.32-.06,.68-.28,.8l-2.83,1.58c-.22,.12-.45-.04-.51-.37l-.81-4.25c-.06-.33,.07-.69,.29-.81l2.84-1.53c.22-.12,.44,.05,.5,.37Z" fill="#00bce7"/>
      <path d="M421.99,389.62l.77,4.14c.06,.32-.06,.67-.27,.79l-2.74,1.53c-.21,.12-.43-.04-.5-.37l-.79-4.19c-.06-.32,.06-.68,.28-.79l2.76-1.49c.21-.11,.43,.05,.49,.37Z" fill="#00bce7"/>
      <path d="M416.29,385.26l.8,4.23c.06,.32-.06,.68-.28,.8l-2.85,1.52c-.22,.12-.45-.05-.51-.38l-.82-4.28c-.06-.33,.07-.69,.29-.8l2.87-1.47c.22-.11,.44,.06,.51,.39Z" fill="#00bce7"/>
      <path d="M420.75,382.97l.78,4.17c.06,.32-.06,.67-.27,.78l-2.76,1.47c-.21,.11-.44-.05-.5-.38l-.8-4.22c-.06-.33,.06-.68,.28-.79l2.78-1.43c.21-.11,.43,.06,.49,.39Z" fill="#00bce7"/>
      <path d="M415.01,378.46l.81,4.26c.06,.33-.07,.68-.28,.79l-2.87,1.46c-.22,.11-.46-.06-.52-.39l-.82-4.31c-.06-.33,.07-.69,.29-.8l2.89-1.41c.22-.11,.45,.07,.51,.4Z" fill="#00bce7"/>
      <path d="M419.5,376.26l.78,4.2c.06,.32-.06,.67-.27,.78l-2.79,1.41c-.22,.11-.44-.06-.5-.39l-.8-4.25c-.06-.33,.06-.68,.28-.79l2.8-1.37c.21-.1,.43,.07,.5,.4Z" fill="#00bce7"/>
      <path d="M408.83,419.01l2.95-1.82c.22-.14,.46,.01,.52,.34l.82,4.22c.06,.32-.07,.7-.29,.84l-2.93,1.87c-.23,.14-.47,0-.53-.33l-.84-4.27c-.06-.33,.07-.71,.3-.85Z" fill="#00bce7"/>
      <path d="M403.99,421.99l3.05-1.88c.23-.14,.47,0,.54,.34l.85,4.28c.06,.33-.07,.71-.3,.86l-3.03,1.93c-.24,.15-.48,0-.55-.33l-.87-4.33c-.07-.33,.07-.72,.31-.87Z" fill="#00bce7"/>
      <path d="M398.98,425.07l3.15-1.94c.24-.15,.49,0,.56,.34l.87,4.34c.07,.33-.07,.73-.31,.88l-3.13,1.99c-.24,.15-.5,0-.56-.33l-.89-4.39c-.07-.34,.07-.74,.32-.89Z" fill="#00bce7"/>
      <path d="M393.81,428.25l3.26-2c.25-.15,.5,0,.57,.34l.9,4.41c.07,.34-.07,.74-.32,.89l-3.23,2.06c-.25,.16-.51,.01-.58-.33l-.92-4.46c-.07-.34,.08-.75,.33-.9Z" fill="#00bce7"/>
      <path d="M418.47,417.68c.19-.16,.39-.31,.59-.46,.07-.05,.14-.1,.21-.16,.02-.01,.1-.07,.14-.1,.04-.03,.08-.07,.09-.08,.07-.06,.13-.11,.2-.17,.12-.1,.24-.21,.36-.31,.51-.44,.96-1.02,1.56-1.32,.09-.05,.19-.06,.28-.09l-.58-3.04c-.06-.32-.28-.47-.49-.34l-2.78,1.71c-.22,.13-.34,.5-.28,.82l.68,3.54Z" fill="#00bce7"/>
      <path d="M416.8,406.66l2.8-1.65c.21-.13,.43,.03,.49,.35l.78,4.14c.06,.32-.06,.68-.27,.81l-2.78,1.7c-.22,.13-.44-.02-.5-.34l-.8-4.18c-.06-.32,.06-.69,.28-.82Z" fill="#00bce7"/>
      <path d="M415.3,420.44c.25-.33,.49-.62,.81-.88,.31-.25,.63-.48,.96-.72,0,0,.06-.05,.1-.08,.04-.03,.09-.07,.1-.08,.11-.09,.23-.18,.34-.28l-.71-3.7c-.06-.32-.29-.47-.51-.34l-2.86,1.76c-.22,.14-.35,.51-.29,.84l.82,4.21c.06,.32,.29,.47,.51,.33l.55-.35c0-.25,.04-.53,.18-.71Z" fill="#00bce7"/>
      <path d="M412.21,409.36l2.89-1.7c.22-.13,.45,.03,.51,.35l.8,4.19c.06,.32-.06,.69-.28,.82l-2.87,1.75c-.22,.14-.45-.02-.52-.34l-.82-4.24c-.06-.33,.07-.7,.29-.83Z" fill="#00bce7"/>
      <path d="M388.46,431.54l3.37-2.07c.26-.16,.52,0,.59,.34l.93,4.47c.07,.34-.08,.75-.33,.91l-3.34,2.13c-.26,.17-.53,.02-.6-.33l-.95-4.53c-.07-.35,.08-.76,.34-.92Z" fill="#00bce7"/>
      <path d="M386.94,424.26l3.4-2c.26-.15,.53,0,.6,.35l.94,4.51c.07,.35-.08,.75-.33,.91l-3.37,2.06c-.26,.16-.53,0-.61-.34l-.96-4.56c-.07-.35,.08-.76,.34-.92Z" fill="#00bce7"/>
      <path d="M382.93,434.94l3.48-2.14c.26-.16,.54-.01,.61,.34l.96,4.54c.07,.35-.08,.77-.34,.93l-3.46,2.2c-.27,.17-.55,.02-.62-.33l-.98-4.59c-.08-.35,.08-.78,.35-.94Z" fill="#00bce7"/>
      <path d="M381.35,427.55l3.52-2.07c.27-.16,.54,0,.62,.35l.97,4.58c.07,.35-.08,.77-.35,.93l-3.49,2.13c-.27,.17-.55,.01-.63-.34l-.99-4.63c-.08-.36,.08-.78,.36-.94Z" fill="#00bce7"/>
    </g>
    <path d="M203.42,346.79l-9.25,7.5c1.8-.37,3.64-.57,5.47-.58,.06-.27,.19-.53,.4-.73,1.66-1.56,3.72-2.62,5.67-3.77,.49-.29,.98-.59,1.46-.9,.23-.15,.46-.31,.69-.47,.09-.06,.17-.12,.25-.19,.01-.01,.19-.15,.2-.16,.4-.33,.79-.68,1.13-1.07,.01-.01,.03-.03,.04-.04-1.97,.64-4.03,.34-6.06,.42Z" fill="#00bce7"/>
    <path d="M390.28,315.15c-.51-.57-.08-1.68,.57-2.27,.05-.05,.1-.08,.16-.12-1.03-.9-2.19-1.66-3.57-2.17-.72-.27-.84-1-.61-1.69-2.93-2.2-5.62-4.04-6.51-4.14-2.25-.25-29.56-7.03-29.56-7.03l-26.26-1.02-31.4,5.32-31.96,10.39-16.36,8.21c-.77,.56-1.57,1.08-2.4,1.57-1.05,.63-2.16,1.23-3.09,2.03-1.88,1.63-3.43,3.62-5.68,4.78-.54,.28-1.18,.25-1.65-.09-1,.65-1.86,1.54-2.67,2.38-1.24,1.28-2.4,2.65-3.79,3.77-1.85,1.49-3.98,2.56-6.16,3.51,.21,.82-.3,1.53-1.05,1.81-.39,.15-.76,.32-1.12,.52,.08,.6-.15,1.29-.71,1.53-1.51,.64-2.8,1.64-4.17,2.52,.63,.45,.81,1.29,.45,1.97-1.11,2.08-3.16,3.47-5.13,4.65-1,.6-2.03,1.17-3.03,1.78-.18,.11-.36,.24-.54,.35,0,.15-.01,.3-.06,.47-1.28,4.37-4.96,6.71-8.3,9.38,.51,.41,.76,1.1,.28,1.81-2.88,4.31-6.51,8.01-9.86,11.95-1.69,1.99-3.29,4.07-4.62,6.32-1.33,2.23-2.52,4.55-3.81,6.8,6.56-2.14,12.18-3.53,16.35-4.44,0,0,26.38-5.74,41.31-1.4,.03,0,.21,.06,.45,.12,.63,.15,1.79,.34,3.28,.12,3.45-.49,6.22-2.76,6.8-3.21,2-1.55,4.35-2.59,6.38-4.09,3.52-2.58,29.73-19.78,64.78-34.54,15.53-6.54,37.51-15.64,68-21,4.18-.73,7.67-1.25,10.08-1.58-2.92-1.84-3.91-4.26-4.81-5.26Z" fill="#3d475b"/>
    <path d="M376.78,304.6c-8.9-3-18.4-3.65-27.77-4.28" fill="#3d475b"/>
    <path d="M380.67,305.31c2.23,.49,4.35,1.46,6.18,2.83,.52,.39,1.01,.8,1.5,1.22,1.61,1.36,3.21,2.71,4.82,4.07" fill="#3d475b"/>
    <path d="M389.39,312.1c-2.29-1.03-4.7-1.81-7.16-2.32" fill="#3d475b"/>
    <path d="M390.34,313.57l2.02,1.1c1.45,.79,3,1.7,3.58,3.24" fill="#3d475b"/>
    <path d="M390.26,316.32c1.49,.63,3.09,1.14,4.74,1.5" fill="#3d475b"/>
    <path d="M392.78,318.28c.93,.33,1.92,.47,2.9,.4" fill="#3d475b"/>
    <path d="M393.94,318.68h.48" fill="#3d475b"/>
    <path d="M394.31,318.98c1.59,.02,3.13-.45,4.66-.85" fill="#3d475b"/>
    <path d="M360.95,301.81l8.07,1.07c2.04,.27,4.53,.38,6.21,1.71,.63,.5,1.5,.62,2.12,0,.52-.52,.64-1.62,0-2.12-2.18-1.73-4.75-2.12-7.44-2.48-2.99-.4-5.98-.79-8.96-1.18-.8-.11-1.5,.77-1.5,1.5,0,.9,.69,1.39,1.5,1.5h0Z" fill="#3d475b"/>
    <path d="M380.77,306.67c3.6,1.56,7.17,3.63,10.02,6.34,.59,.56,1.54,.58,2.12,0s.59-1.56,0-2.12c-3.04-2.89-6.8-5.15-10.63-6.81-.74-.32-1.61-.22-2.05,.54-.37,.63-.21,1.73,.54,2.05h0Z" fill="#3d475b"/>
    <path d="M384.17,311c3.77,1.67,7.37,3.78,10.62,6.33,.64,.5,1.5,.62,2.12,0,.52-.52,.64-1.62,0-2.12-3.46-2.71-7.2-5.01-11.22-6.79-.74-.33-1.61-.22-2.05,.54-.37,.64-.21,1.72,.54,2.05h0Z" fill="#3d475b"/>
    <path d="M388.9,316.03c1.94,1.23,3.98,2.31,6.09,3.22,.39,.17,.73,.27,1.16,.15,.35-.1,.73-.36,.9-.69,.34-.65,.23-1.72-.54-2.05-2.11-.91-4.15-1.99-6.09-3.22-.66-.42-1.68-.16-2.05,.54-.39,.74-.17,1.6,.54,2.05h0Z" fill="#3d475b"/>
    <path d="M393.23,320.58c1.47,.03,2.98-.19,4.38-.66,.37-.12,.7-.35,.9-.69,.19-.32,.27-.8,.15-1.16-.24-.74-1.05-1.31-1.85-1.05-.71,.24-1.44,.4-2.19,.5l.4-.05c-.59,.08-1.19,.11-1.79,.1-.78-.01-1.54,.7-1.5,1.5s.66,1.48,1.5,1.5h0Z" fill="#3d475b"/>
    <polygon points="326.5 669 326.39 686.03 332 686.83 331.9 673.5 326.5 669" fill="#004c9c"/>
    <g>
      <path d="M433.24,500.71c.61-1.92,1.56-2.74,2.75-3.71,5.83-4.7,11.85-7.95,17.89-10,3.18-1.08,6.28-1.68,9.26-1.86,4.23-.27,7.8,.61,10.94,2.19,4.35,2.19,7.33,5.74,9.02,10.53,.05,.15,.08,.32,.14,.45,.29,.65,.32,1.08-.38,2.44-.67,1.54-.25,.51-.33,.75-.44,1-.8,1.41-1.55,1.94-.36,.26-.71,.72-1,1.12-1.98,2.83-3.83,5.72-5.9,8.46-1.69,2.24-3.64,4.31-5.46,6.46-.94,1.11-2.01,1.59-3.07,2.12-3.89,1.92-7.67,3-11.39,3.7-1.94,.36-3.93,.77-5.72,.72-5.53-.14-10.69-1.14-14.68-4.25-.38-.3-.69-.77-.79-1.3-.94-4.93-.68-10.46,.49-16.47,.05-.25,.05-.54-.07-.68-.6-.71-.76-.7-.16-2.61h0Zm37.82,.8c-3.86-.11-8.28,3.6-10.17,7.83-2.18,4.88-.68,8.58,3.38,8.37,3.47-.18,7.52-3.43,9.55-7.76,2.28-4.88,.4-8.47-2.76-8.43Zm-24.45-.27c-3.9-.08-9.04,3.8-10.81,9-1.42,4.16-.14,8.09,4.52,7.82,3.68-.21,8.3-3.82,10.11-8.73,1.65-4.49-.11-8.02-3.82-8.09h0Zm2.49,13.31c-.84,2-1.15,3.73-.27,4.88,.93,1.22,2.48,1.27,4.46,.23,1.97-1.03,3.13-2.79,4.06-4.72,.08-.17,0-.5-.11-.51-.74-.04-1.52,0-2.27,0-1.13,2.04-1.92,2.84-2.76,2.8-.28-.01-.63-.12-.66-.35-.09-.7-.03-1.49-.03-2.36l-2.42,.03h0Z" fill="#01bde8"/>
      <path d="M481.32,504.02c-1.11,1.94-2.17,3.88-3.31,5.78-2.67,4.45-5.56,8.78-8.76,12.94-.36,.46-.88,.95-1.33,1.21-5.32,3.02-10.64,5.5-15.88,6.67-3.11,.7-6.06,.84-8.89,.6-4.72-.41-8.41-2.38-11.86-4.89-.06-.05-.12-.1-.18-.14-2.37-1.84-1.98-1-1.78-4.8,.26-4.77,1.13-9.8,2.35-15,.21-.88,.47-1.78,.71-2.67,.08-.03,.15-.07,.23-.1,0,.32,.08,.63,.02,.97-.96,5.25-1.01,10.05-.71,14.66,.17,2.6,1.74,3.7,3.51,4.65,3.05,1.63,6.56,2.43,10.28,2.72,5.53,.44,11.5-.98,17.69-3.43,1.01-.4,2.03-.95,3.04-1.44,1.6-.76,2.87-2.19,4.1-3.62,3.56-4.14,6.9-8.45,9.75-13.09,.24-.38,.54-.74,.82-1.12l.21,.1h0Z" fill="#03bde8"/>
      <path d="M428.31,501.09c.86,0,1.37,.75,1.11,1.65-1.94,6.74-2.66,13.03-3.06,19.12-.03,.39,0,.77-.02,1.16-.02,.63-.5,1.28-1.15,1.53-.63,.24-1.27,.47-1.87,.55-.26,.04-.52-.22-.59-.47-.51-1.87-1.06-3.74-1.45-5.72-.49-2.44-.82-4.99-.55-7.86,.09-.91,.28-1.76,.92-2.7,1.36-1.99,2.68-4,3.99-6.03,.44-.68,.93-.96,1.53-1.04,.4-.05,.81-.14,1.13-.19h0Z" fill="#02bde8"/>
      <path d="M486.62,501.69c.33,.09,.75,.17,1.11,.34,.12,.06,.16,.32,.13,.53-.39,2.22-.8,4.43-1.22,6.64-.04,.19-.21,.43-.35,.65-2.2,3.4-4.95,6.33-7.7,9.22-1.36,1.43-2.79,2.76-4.18,4.14-.45,.45-.83,.69-1.2,.47-.29-.17-.66-.22-.96-.38-.41-.23-.33-.8,.17-1.46,3.78-5.04,7.3-10.24,10.42-15.66,.57-.99,1.08-2.01,1.63-3.01,.47-.86,1.42-1.52,2.15-1.47h0Z" fill="#02bde8"/>
      <path d="M421.25,506.15c-.58-2.16-1.12-4.17-1.68-6.27,1.2,.01,2.32-.03,3.37,.08,.29,.03,.41,.49,.57,.79,.47,.89,.35,1.85-.69,3.04-.56,.65-.96,1.43-1.57,2.36h0Z" fill="#06bee9"/>
      <path d="M494.41,500.71c-1.94,1.91-3.73,3.67-5.66,5.56,.22-1.24,.4-2.33,.61-3.43,.02-.1,.2-.27,.31-.39,1.08-1.15,2.17-1.73,3.25-1.76,.47,0,.92,0,1.5,.02h0Z" fill="#06bee9"/>
      <path d="M427.25,521.72c.2-5.88,.9-11.98,2.75-18.5,.1-.05,.19-.11,.29-.16,.08,.47,.33,.91,.2,1.41-1.47,5.63-2.41,11.04-2.87,16.25-.03,.3-.24,.67-.37,1.01h0Z" fill="#0fc0e9"/>
      <path d="M472.49,520.7c.15-.32,.27-.65,.46-.95,2.26-3.49,4.56-6.99,6.81-10.54,.9-1.42,1.67-2.9,2.49-4.37,.34-.61,.77-1.04,1.48-1.44-3.23,6.15-7.07,11.8-11.11,17.32-.05,0-.1-.01-.15-.02h0Z" fill="#0fc0e9"/>
      <path d="M419.69,490.66c.18,.27,.45,.49,.52,.82,.51,2.45,.98,4.9,1.46,7.32,.01,.06-.02,.15-.22,.38-.14-.24-.34-.44-.4-.72-.52-2.51-1.02-5.06-1.53-7.63,.06-.06,.12-.12,.18-.18h0Z" fill="#19c3ea"/>
      <path d="M500.37,492.94c-1.31,1.7-6.58,6.97-7.03,7.07,.71-1.07,6.35-6.78,7.03-7.07h0Z" fill="#19c3ea"/>
      <path d="M472,509.68c-1.32,3.07-4.42,5.59-6.91,5.64-2.63,.04-3.67-2.41-2.33-5.62s4.63-5.85,7.15-5.79c2.5,.06,3.43,2.67,2.09,5.78h0Z" fill="#02bde8"/>
      <path d="M448.18,509.74c-1.35,3.38-4.46,5.81-7.52,5.88-2.55,.06-3.71-2.67-2.5-5.85,1.3-3.41,4.72-5.97,7.39-6.03,2.76-.06,3.92,2.77,2.63,5.99Z" fill="#02bde8"/>
    </g>
    <path d="M240.75,535.39c-1.71-.1-3.42-.24-5.13-.25-.28,0-.51-.07-.71-.18-1.39,.17-2.77,.38-4.16,.46-.98,.18-1.96,.38-2.94,.61-1.3,.3-2.63,.57-3.98,.53-.35,.07-.69,.14-1.04,.2-1.19,.71-2.42,1.34-3.79,1.63v11.61l1.83,3.56c.44,.05,.88,.1,1.33,.14,.01,0,.03,0,.04,0l.8-4.7,1-2,.85-.62c.04-.09,.07-.18,.11-.26,.06-.11,.14-.2,.22-.29,.03-.08,.06-.16,.1-.23,.21-.36,.52-.55,.9-.69,.26-.1,.52-.16,.79-.2,.42-.06,.83-.12,1.25-.08,.55,.06,1.01,.15,1.5,.41,.43,.23,.84,.63,1.05,1.07,.04,.07,.06,.14,.09,.21l6.48,3.19,6.16-10.19,1.49-3.32-4.25-.61Z" fill="#bebebe" stroke="#bebebe" stroke-miterlimit="10" stroke-width="2"/>
    <path d="M259.91,510.38c.12-.48,.48-.81,.92-.97,.02-.08,.03-.16,.04-.24,0-.01,0-.02,0-.03-.18-.23-.3-.38-.3-.38l-12.09-1.02-13.81,5.73-6.81,9.79s12.09-1.86,25.99-4.04c.01-.08,.03-.16,.06-.23,1.34-3.25,3.59-5.88,5.94-8.43,.02-.06,.04-.12,.06-.18Z" fill="#bebebe" stroke="#bebebe" stroke-miterlimit="10" stroke-width="2"/>
  </g>
  <g id="Outline">
    <path d="M364.47,454.11c25.47-12.91,49.53-33.11,49.53-33.11,0,0,14-12,17-18s1-21,1-21l1.62-1.97s3.38,1.97,5.29,5.03c1.91,3.07,4.09,22.94,5.09,31.94s-2,12-3,15-7.38,7.86-7.38,7.86" fill="none" stroke="#191c2f" stroke-miterlimit="10" stroke-width="2"/>
    <path d="M349.85,460.55c4.86-9.31,9.49-16.68,13.15-19.55,4.91-3.86,3.7,4.44,.02,19.12" fill="none" stroke="#fff" stroke-miterlimit="10" stroke-width="2"/>
    <path d="M295.48,487.15c.6,.56,.69,.17,1.2-.1,0,0,.9-.59,.9-.59,4.21-2.8,7.7-6.42,10.99-10.24,0,0,11.67-12.89,11.67-12.89,3.72-2.99,9.11-3.59,12.49,.4,2.55,3.22,4.94,6.35,8.05,9.06,5.74,5.42,12.83,10.46,18.96,15.47,2.84,4,.87,11.45-2.73,14.48-2.14,2.05-5.08,3.32-7.7,4.29-1.34,.53-3.19,1.26-4.77,.75-.68-.18-1.19-.51-1.66-.72-.01,0,0,0,0,0,.01,0,.03,0,.04,0,.04,0-.04,0-.14-.01-.15,0-.37-.11-.48-.18-.34-.26-.44-.44-.54-.57-.87-1.36-1.5-2.8-2.2-4.23-2.81-5.94-6.5-14.65-9.14-20.77-.88-2.29-2.47-4.66-4.86-5.34-2.46-.21-4.7,1.89-6.75,3.23-1.48,1.1-2.85,2.3-4.19,3.61-2.8,2.71-5.92,5.07-9.21,7.12-1.78,.43-3.56,.87-5.39,1.17l-.07-.17c4.69-2.93,9.15-5.46,13.26-9.57,1.35-1.34,2.83-2.63,4.37-3.79,2.46-1.62,5.05-4.05,8.35-3.61,3.19,.77,5.28,3.73,6.38,6.55,2.64,6.11,6.33,14.76,9.15,20.67,.65,1.33,1.26,2.7,2.04,3.93,.02,.04,.16,.17-.02,.02-.11-.08-.29-.16-.44-.17-.09,0-.15,0-.1,0,.35,0,.77,.15,1.04,.3,1.58,1.03,2.86,.46,4.54-.2,5.1-1.7,9.89-4.92,10.32-10.69,.14-1.51,.16-3.15-.55-4.5-.02-.05-.11-.15-.06-.09l.09,.08c-2.36-1.93-7.17-5.71-9.6-7.55-4.81-3.84-9.57-7.8-13.72-12.41-1.36-1.45-2.49-3.31-3.79-4.76-2.6-3.15-6.63-2.56-9.65-.28,0,0,.17-.15,.17-.15l-5.86,6.43c-3.95,4.29-7.71,8.79-12.41,12.33-1.7,1.29-3.61,2.61-5.4,3.78,0,0-.93,.59-.93,.59l-.47,.29c-.16,.08-.33,.16-.18,.76l-1.04-1.71h0Z" fill="#191c2f"/>
    <path d="M313.82,504.9c2.06-4.54,4.09-9.34,5.22-14.2,0,0,1.92,.56,1.92,.56-1.23,4.56-1.84,9.37-1.1,14.04,.85,4.33,2.37,8.9,4.57,12.77,0,0,.07,.08,.07,.08-.03-.03-.16-.09-.24-.12-.02,0-.18-.04-.26-.04l.7,.29c.66,.52,1.57,.73,2.47,.71,2.1-.02,4.39-.01,6.27-.84,1.81-.95,3.65-2.47,5.22-3.86,1.62-1.41,2.92-2.91,3.21-5.07,.18-1.01,.18-2.05,.07-3.13l1.99-.18c.72,5.76-2.24,8.83-6.62,12.09-1.78,1.49-4.27,2.77-6.64,2.86-2.53,.12-5.3,.66-7.39-1.15,0,0,.7,.29,.7,.29-.28,0-.48-.1-.68-.24-1.8-1.89-2.43-4.6-3.4-6.94-2.92-6.93-2.98-14.89-.88-22.08,0,0,1.92,.56,1.92,.56-1.67,4.81-4.21,9.42-6.78,13.8,0,0-.36-.2-.36-.2h0Z" fill="#191c2f"/>
    <path d="M356,474s-4.06,5.67-8.03,6.33" fill="none" stroke="#191c2f" stroke-miterlimit="10" stroke-width="2"/>
    <path d="M332,464c3.67-.42,7.69-1.05,12-2,4.02-.89,7.69-1.92,11-3,3.73-1.25,7.23-.3,8.51,1.89,.25,.43,.73,1.45,.49,3.11,.33,2,.67,4,1,6,.27,1.76,1.97,13.08,1,19-.18,1.1-.5,2.32-1.41,3.45-1.68,2.1-4.32,2.56-5.49,2.68" fill="none" stroke="#191c2f" stroke-miterlimit="10" stroke-width="2"/>
    <path d="M349.91,505.68c-4.86,14.84-9.91,28.32-9.91,28.32" fill="none" stroke="#191c2f" stroke-linecap="round" stroke-miterlimit="10" stroke-width="2"/>
    <path d="M321,527s1.12-2.21,3.6-8.62" fill="none" stroke="#191c2f" stroke-miterlimit="10" stroke-width="2"/>
    <path d="M321,527s2.21,12.71,3.6,14.35,1.73,2.29,4.06,.97,10.33-5.32,11.33-8.32l1-3" fill="none" stroke="#191c2f" stroke-linecap="round" stroke-miterlimit="10" stroke-width="2"/>
    <path d="M366,492s2,3,1,7-6,10-8,11-7.7,1-9.85,0" fill="none" stroke="#191c2f" stroke-linecap="round" stroke-miterlimit="10" stroke-width="2"/>
    <path d="M304.58,480.33s-13.58-1.33-22.58,1.67-46,68-46,72-12,43-10,53,3,14,7,17,7,6,8,6,21.36-1.97,24.18-4.48c2.82-2.52,42.82-51.52,64.82-67.52s21-22,21-22" fill="none" stroke="#191c2f" stroke-linecap="round" stroke-miterlimit="10" stroke-width="2"/>
    <path d="M348.77,511.36c5.5,7.37,4.52,15.29,3.08,23.72-.2,1.15-.45,2.25-.48,3.35-.01,.56-.48,.99-1.03,.98-.64,0-1.11-.64-.95-1.26,.57-2.32,.89-4.44,1.17-6.71,.6-4.44,1.13-8.83-.37-13.1-.69-2.07-1.72-4.13-3.01-5.76-.79-1.05,.77-2.26,1.59-1.21h0Z" fill="#191c2f"/>
    <path d="M235,513l-16,23-1,13s0,2,2,4l2.49,2.49" fill="none" stroke="#191c2f" stroke-miterlimit="10" stroke-width="2"/>
    <path d="M161,453l2,19s43,35,58,39,13,2,27-3" fill="none" stroke="#191c2f" stroke-miterlimit="10" stroke-width="2"/>
    <polyline points="163.31 431.12 170 427 179 440 178 452 165 459 155 445 156.74 436.31" fill="none" stroke="#191c2f" stroke-miterlimit="10" stroke-width="2"/>
    <polygon points="118 374 164 433 164 437 159 440 112 384 112 379.32 118 374" fill="none" stroke="#191c2f" stroke-miterlimit="10" stroke-width="2"/>
    <path d="M174,430c15.98-7.98,28.78-11.14,32-10,2.21,.78,4,2,4,2,1.54,1.04,2.64,2.16,3.35,3v15.06c5.37,10.59,10.71,18.56,14.65,23.94,5.94,8.12,12.37,15.36,22.71,27,2.65,2.98,4.84,5.41,6.29,7,.21,.71,.41,1.83,0,3-.54,1.52-1.83,2.29-3,3-1.8,1.09-4.02,2.46-7.05,4.38" fill="none" stroke="#191c2f" stroke-miterlimit="10" stroke-width="2"/>
    <line x1="249.05" y1="507.05" x2="261.06" y2="508.84" fill="none" stroke="#191c2f" stroke-miterlimit="10" stroke-width="2"/>
    <path d="M226.5,596.46s-2.5-.46-2.5-2.46-2-39-1-42,1-6.35,3.5-6.68,8.2,2.54,10.85,5.11" fill="none" stroke="#191c2f" stroke-miterlimit="10" stroke-width="2"/>
    <path d="M224,594l-4,8s-1,1.19,0,4.1,3,12.03,6.5,12.97,3.53,1.72,3.53,1.72" fill="none" stroke="#191c2f" stroke-miterlimit="10" stroke-width="2"/>
    <path d="M248,629c5.04,21.83,15.24,34.18,21,40,7.3,7.37,17.87,14.76,23,12,0,0,.2-.11,6-4h0c3-2,41-34.13,50-43.06" fill="none" stroke="#191c2f" stroke-miterlimit="10" stroke-width="2"/>
    <path d="M414,602c-.76,10.69-3.07,25.97-10,43-5.55,13.65-12.39,24.29-18.18,31.93-.28,.36-.55,.72-.82,1.07,0,0,6-8,6-14,0-15.03-7.45-30-7.45-30h-34.55c-1,0-3,2-3,2h0" fill="none" stroke="#191c2f" stroke-miterlimit="10" stroke-width="2"/>
    <path d="M500.71,534.4h0s5.44-17.22,5.44-17.22l22.17-70.18-4.38-6.94-.94-1.06-110.29,1.06-8.71,6.94-48,149.46,5,4.54h113.65l6.45-4.54,6.64-21.03h.01" fill="none" stroke="#191c2f" stroke-miterlimit="10" stroke-width="2"/>
    <path d="M502.91,531.41c-.96,2.1-1.97,4.13-3.19,6.12-.92,1.25-1.7,3.12-3.63,3.47-.68-.01-1.97-.06-2.64-.11-4.01-.29-10.4-.56-13.21-.92-5.81,1.7-10.81,8.36-9.18,14.48,1.1,2.94,4.5,4.26,7.45,4.63,1.8,.09,3.83-.64,5.4-1.34,.51-.28,1.11-.86,1.66-1.12,2.99-1.71,6.08-3.19,9.19-4.64,1.18-.53,3.25-1.49,4.17-1.67,2.88-2.53,5.18-5.7,7.64-8.64,0,0-.06,.09-.06,.09,.35-.77,.59-1.74,.75-2.66,.32-2.68,.76-5.94-1.27-8.07,3.52,1.32,2.7,8.44,1.45,11.31-2.1,2.71-4.19,5.43-6.52,7.96-.52,.5-.92,1.04-1.63,1.34-1.15,.26-2.76,1.14-3.9,1.65-3.03,1.49-6.06,3.04-8.96,4.75-.35,.21-.65,.4-.91,.63-1.42,1.13-3.24,1.53-4.88,1.96-1.44,.42-3.01,.19-4.44-.18-13.43-3.21-6.37-20.2,3.89-22.45,5.05,.35,10.11,.72,15.16,.97,0,0,.75,.02,.75,.02-.11,.02,.05-.01,.19-.14,2.15-2.16,3.55-5.48,4.91-8.27,0,0,1.83,.81,1.83,.81h0Z" fill="#191c2f"/>
    <path d="M470.3,556.28c-1.04,.77-2.04,1.89-2.63,3.06-1.7,3.62,.06,8.78,3.02,11.17,2.13,1.7,5.35,1.96,7.93,1.59,2.7-.45,4.88-2.57,7.45-4.38,5.16-3.45,10.51-6.31,15.92-9.27,0,0,2.03-1.08,2.03-1.08l.52-.27c1.78-.81,2.35-2.94,3.49-4.47,1.61-2.45,2.87-5.24,4.03-8l-.07,.37c.11-1.26,.05-2.68-.13-3.97-.18-1.34-.5-2.68-.98-3.98l.21-.1c1.54,2.48,2.56,5.28,2.91,8.2-1.22,2.95-2.51,5.84-4.3,8.58-1.28,1.98-2.36,4.56-4.77,5.42,0,0-2.01,1.07-2.01,1.07-6.7,3.65-13.38,7.19-19.42,11.86-5.32,3.97-14.45,2.53-17.14-3.92-1.34-3-2.06-6.67-.49-9.72,.8-1.54,1.88-2.77,3.29-3.81l1.13,1.65h0Z" fill="#191c2f"/>
    <path d="M472.15,573.12c.8,4.6,4.55,6.94,9.02,5.88,4.16-1.24,6.87-5.8,10.23-8.52,3.54-3.16,7.23-6.23,11.74-7.98,1.9-.78,4.52-1.17,5.45-3.03,.57-2.14,1.5-4.38,2.25-6.47,0,0,.32,0,.32,0,.18,1.83-.41,3.52-.82,5.22-.37,3.75-3.7,4.61-6.66,5.73-7.54,3.16-12.56,10-18.57,15.28-5.8,4.37-13.8,1.58-14.95-5.82,0,0,1.98-.29,1.98-.29h0Z" fill="#191c2f"/>
    <path d="M496.31,567.5s8.69-2.6,11.69-2.05,2.87-3.19,5.94-10.32l3.06-7.13s2-5.42,1-9.71-8.71-19.93-11.85-21.11" fill="none" stroke="#191c2f" stroke-miterlimit="10" stroke-width="2"/>
    <path d="M359.94,584.2c-6.46-3.02-10.94-9.59-10.94-17.2,0-10.49,8.51-19,19-19,1.18,0,2.34,.11,3.46,.32" fill="none" stroke="#191c2f" stroke-miterlimit="10" stroke-width="2"/>
    <polyline points="361 601 361 614.03 378.06 614.03 378.06 602" fill="none" stroke="#191c2f" stroke-miterlimit="10" stroke-width="2"/>
    <path d="M366,489s19.87-7.77,29.93-16.89" fill="none" stroke="#191c2f" stroke-miterlimit="10" stroke-width="2"/>
    <path d="M228.87,418.77c3.02,6.43,5.75,12.22,8.13,17.23,9.95,20.95,11.84,24.41,16,28,6.5,5.6,13.25,7.91,22.52,9,14.92,1.75,27.77,.99,33.48,0,2.09-.36,3.82-.73,5-1" fill="none" stroke="#191c2f" stroke-miterlimit="10" stroke-width="2"/>
    <path d="M353.2,459.57s.01-.01,.02-.01" fill="none" stroke="#191c2f" stroke-miterlimit="10" stroke-width="2"/>
    <path d="M321.59,516.82c-1.6-.75-3.34-1.16-5.03-.97-.85,.1-1.65,.32-2.43,.71-.78,.38-1.63,.95-2.64,1.31-2.02,.72-4.19,.61-6.12,0-.97-.31-1.87-.73-2.74-1.19-.88-.47-1.72-1.03-2.48-1.69-1.53-1.3-2.76-2.97-3.45-4.86-.35-.94-.54-1.94-.66-2.9-.12-.94-.21-1.95-.18-2.92,.05-1.97,.46-3.86,.8-5.73,.18-.94,.37-1.88,.62-2.82,.13-.47,.27-.94,.46-1.41,.1-.23,.21-.47,.45-.72,.1-.11,.39-.29,.67-.18,.25,.11,.33,.26,.41,.38l-.56,.35c-.04-.07-.11-.12-.09-.11,.05,.03,.1,0,.04,.04-.08,.1-.19,.3-.27,.5-.16,.41-.28,.86-.39,1.32-.21,.91-.38,1.84-.52,2.78-.29,1.88-.63,3.75-.62,5.59,0,.93,.11,1.82,.26,2.76,.14,.93,.34,1.8,.67,2.64,.67,1.67,1.81,3.13,3.21,4.26,2.8,2.16,6.7,3.63,9.9,2.35,.78-.3,1.52-.82,2.43-1.31,.91-.49,1.96-.83,3-.97,2.1-.29,4.22,.16,6.08,.97l-.82,1.83Z" fill="#191c2f"/>
    <path d="M374,700c-10.87,2.07-19.86,2.75-26,3-40.91,1.65-58.46-12-59-14,0,0-.01-.04-.61-2.39h0v-5.02" fill="none" stroke="#191c2f" stroke-miterlimit="10" stroke-width="2"/>
    <path d="M372.13,700.28s5.87-.28,7.87-10.28l6-30" fill="none" stroke="#191c2f" stroke-miterlimit="10" stroke-width="2"/>
    <path d="M385.81,661.15s.19-4.15-1.81-9.15-7-17-7-17l-1.06-1" fill="none" stroke="#191c2f" stroke-miterlimit="10" stroke-width="2"/>
    <path d="M382.86,679.17c-.86-.17,.78,.69,2.96-2.24" fill="none" stroke="#191c2f" stroke-miterlimit="10" stroke-width="2"/>
    <path d="M285.22,304.14c32.25-32.57,45.37-70.64,29.29-92.12-19.28-25.74-73.2-17.93-120.43,17.44-47.23,35.37-69.9,84.91-50.62,110.65,11.68,15.6,36.08,18.88,64.01,11.16" fill="none" stroke="#191c2f" stroke-miterlimit="10" stroke-width="2"/>
    <path d="M277.53,306.6c32.04-30.14,45.96-66.26,31.19-85.97-16.96-22.65-65.38-15.05-108.14,16.98s-63.68,76.35-46.72,99c10.66,14.24,33.76,16.52,60.07,8.29" fill="none" stroke="#191c2f" stroke-miterlimit="10" stroke-width="2"/>
    <path d="M254.19,520s-1.69,7.5,.31,18.5c.96,5.28,2.84,10.33,5.2,14.6,2.56,4.62,5.68,8.32,8.8,10.4,6,4,11,8,19,10s20.77,2.16,24,1" fill="none" stroke="#191c2f" stroke-miterlimit="10"/>
    <path d="M256.48,545.91c-2.36,1.99-5.23,4.8-7.98,8.59-2.97,4.09-4.83,7.99-6,11" fill="none" stroke="#191c2f" stroke-miterlimit="10"/>
    <path d="M250.27,564.6c1.51-2.82,5.09-8.8,9.43-11.5" fill="none" stroke="#191c2f" stroke-miterlimit="10"/>
    <path d="M242.5,565.06s8.02-1.24,8.01-.9" fill="none" stroke="#191c2f" stroke-miterlimit="10"/>
    <path d="M222.68,535.83c4.87-1.13,9.87-1.88,14.88-1.79,1.67,.05,3.38,.2,4.96,.87l-.04,.21c-6.62-.09-13.17-.04-19.72,1.12,0,0-.09-.41-.09-.41h0Z" fill="#191c2f"/>
    <path d="M322,565.06s12.63,7.89,28.07,10.16" fill="none" stroke="#191c2f" stroke-miterlimit="10"/>
    <path d="M266.36,666.18c10.86,6.68,22.14,7.32,22.14,7.32,9.78-6.58,20.82-15.09,32-26,7.4-7.22,13.69-14.34,19-21l48,1s9.64,15.04,7.32,36.02" fill="none" stroke="#191c2f" stroke-miterlimit="10"/>
    <path d="M295.32,679.17s26.93,13.33,85.55,4.83" fill="none" stroke="#191c2f" stroke-miterlimit="10"/>
    <path d="M320.97,657.88c14.05,2.36,35.67,3.69,65.51-.64" fill="none" stroke="#191c2f" stroke-miterlimit="10"/>
    <polyline points="326.44 686.07 326.5 668.5 332 673.5 332 686.07" fill="none" stroke="#191c2f" stroke-miterlimit="10"/>
    <path d="M324.81,527.81c3.36,2.36,7.44,3.9,11.6,3.83,0,0,.02,.24,.02,.24-4.31,.76-8.86-.61-11.88-3.81,0,0,.25-.26,.25-.26h0Z" fill="#6f7593"/>
    <path d="M366.3,479.23s-1.47,4.27-13.64,4.77" fill="none" stroke="#191c2f" stroke-miterlimit="10"/>
    <path d="M346.58,480.04s-4.34,8.07-10.71,11.26" fill="none" stroke="#191c2f" stroke-miterlimit="10"/>
    <path d="M338.6,497.45s-3.65,8.05-19.38,8.05" fill="none" stroke="#191c2f" stroke-miterlimit="10"/>
    <line x1="335" y1="645.81" x2="333.52" y2="659.43" fill="none" stroke="#191c2f" stroke-miterlimit="10"/>
    <line x1="350.56" y1="633.94" x2="349.98" y2="660.06" fill="none" stroke="#191c2f" stroke-miterlimit="10"/>
    <line x1="368.5" y1="634.5" x2="366.96" y2="659.4" fill="none" stroke="#191c2f" stroke-miterlimit="10"/>
    <line x1="382.39" y1="648.03" x2="381.97" y2="657.86" fill="none" stroke="#191c2f" stroke-miterlimit="10"/>
    <line x1="470.65" y1="571.72" x2="471.44" y2="574.41" fill="none" stroke="#191c2f" stroke-miterlimit="10" stroke-width="2"/>
    <path d="M487.5,539.5s10.16,4.18,3.58,15.09" fill="none" stroke="#191c2f" stroke-miterlimit="10"/>
    <path d="M489.83,566.49c-.33,.01,4.4-4.52-.96-10.75" fill="none" stroke="#191c2f" stroke-miterlimit="10"/>
    <path d="M487.5,567.96s1.61,4.37,.31,6.45" fill="none" stroke="#191c2f" stroke-miterlimit="10"/>
    <path d="M181.77,411.19l-4.77-14.19s0-5,2-8" fill="none" stroke="#fff" stroke-miterlimit="10" stroke-width="2"/>
    <path d="M385.29,305.91c-.43-.3-.86-.61-1.29-.91-1.24-.86-3.49-1.23-6-2-50.13-15.44-96.16,1.89-106.5,5.79-56.96,21.45-85.13,67.21-93.01,81.1" fill="none" stroke="#fff" stroke-miterlimit="10" stroke-width="2"/>
    <path d="M432.26,380.03c-.09-.36-.89-6.16-3.72-14.79" fill="none" stroke="#fff" stroke-miterlimit="10" stroke-width="2"/>
    <line x1="432.39" y1="381.53" x2="431.94" y2="378.28" fill="none" stroke="#fff" stroke-miterlimit="10" stroke-width="2"/>
    <path d="M176.86,428.61s-2.86-5.38-2.86-6,3-8.61,6-10.61,28-8,32-8,12.74,7.61,15.87,12.3,5.25,11.31,5.25,11.31" fill="none" stroke="#191c2f" stroke-miterlimit="10" stroke-width="2"/>
    <path d="M364.43,504.16c1.79-.7,3.64-1.59,5.07-2.66,3.17-2.38,11.24-13.92,15.49-21.7" fill="none" stroke="#191c2f" stroke-miterlimit="10" stroke-width="2"/>
    <line x1="379.27" y1="482.93" x2="379.26" y2="482.93" fill="none" stroke="#191c2f" stroke-miterlimit="10" stroke-width="2"/>
    <path d="M391.81,484.96c-2.75-.62-5.76-1.19-8.87-1.61" fill="none" stroke="#191c2f" stroke-miterlimit="10" stroke-width="2"/>
    <path d="M431.55,368.92c-.07-.68-.47-3.38-.55-3.87-2-12-12-38-12-38l-10-3-6-12-4.87-.05-19.13-52.95-7-2-3,2,17.05,47.45c7.5,5.35,18.36,14.46,27.95,28.55,7.7,11.32,12.04,22.11,14.55,30.19,.18,.58,.35,1.16,.52,1.71l1.93,1.05" fill="none" stroke="#191c2f" stroke-miterlimit="10" stroke-width="2"/>
    <path d="M214.5,429.5l5,5s5,17,8,21,19.66,23.73,19.66,23.73c0,0,3.42,8.63,2.38,10.45" fill="none" stroke="#191c2f" stroke-miterlimit="10"/>
    <line x1="214.97" y1="429.97" x2="213.35" y2="428.3" fill="none" stroke="#191c2f" stroke-miterlimit="10"/>
    <line x1="175.8" y1="429.12" x2="172.57" y2="430.71" fill="none" stroke="#191c2f" stroke-miterlimit="10" stroke-width="2"/>
  </g>
</svg>